<svg id="e1e7a6b0-c2b3-40ba-a6a8-450deac731a6" data-name="Capa 1" xmlns="http://www.w3.org/2000/svg" viewBox="0 0 282.04 365.4">
  <defs>
    <style>
      .afa666e7-728a-4a05-852e-6cc08654d44f {
        fill: #99a8b4;
      }

      .a661e817-ec69-47f5-9429-0c1c6dc51555 {
        fill: #99a8b4;
      }

      .b4c6b15f-2c94-4056-b7bb-c4f45f8a737d {
        fill: #99a8b4;
      }

      .b837fe73-7f4b-49f3-a2a7-5ae2c35bdbc2 {
        fill: #99a8b4;
      }

      .ad9776e2-114e-4874-8f54-342cd58f8583 {
        fill: #99a8b4;
      }

      .a6af5ee5-0b20-489d-8e68-af6cc92206a7 {
        fill: #99a8b4;
      }

      .ad498994-d079-4061-a63e-4f9345d0d323 {
        fill: #99a8b4;
      }

      .bd484e79-193b-451f-b375-8388dd24703d {
        fill: #99a8b4;
      }

      .bb4036ef-2bce-4478-a899-4b09128e776e {
        fill: #99a8b4;
      }

      .bf9e1a4a-2082-41c6-b6a2-bb25a75acab2 {
        fill: #99a8b4;
      }

      .ad04f1ab-e0b9-4b94-afe9-14441764287e {
        fill: #99a8b4;
      }

      .a2f11701-9e18-4922-ac2e-a1224bb166cd {
        fill: #035049;
      }

      .a8a419a7-adad-4a24-8330-b0f8fdbafa38 {
        fill: #99a8b4;
      }
    </style>
  </defs>
  <title>fitness-progress</title>
  <g>
    <path class="afa666e7-728a-4a05-852e-6cc08654d44f" d="M202.79,358.84c1.14,0,2-.79,2.91-1.21a51.08,51.08,0,0,0,12.86-7,74.68,74.68,0,0,0,15.54-15.91c1.68-2.36,2.82-5.07,4.8-7.22a3.14,3.14,0,0,1,1.33,2.75c-.16.28,0,.32.24.35,0,.27.09.55.13.82-.14.28.06.32.26.36l.58,1.6c-.16.28,0,.28.21.25,1.92,3.9,3.76,7.85,5.68,11.73s4.74,7.34,7.11,11a54.77,54.77,0,0,1,3.61,6.87,2.7,2.7,0,0,1-.51,3.17,33.7,33.7,0,0,1-8.92,7.44,57.63,57.63,0,0,1-20,7.94,52,52,0,0,1-25.34-1.54c-7.45-2.3-13.56-6.59-19.32-11.6a11.34,11.34,0,0,1-3.23-4.09c-.75-1.82.12-3,2-2.91a50.73,50.73,0,0,0,18.6-2.31Zm39.6-13.25a13.69,13.69,0,0,0,0-1.71c-.46-3.46-2.48-6.55-2.44-10.16a1.19,1.19,0,0,0-1.05-1c-.58-.12-.8.35-1,.71-.59.85-1.11,1.76-1.74,2.58a110.13,110.13,0,0,1-14.83,16.14,2.43,2.43,0,0,0-.7,2.29c0,.91.74,1,1.44,1.29,1.82.67,3.74,0,5.23-.4,2.55-.69,4.73-2.43,7.62-2.85,1.75-.25,4.31-.7,5.09-3.19,0-.09.22-.15.34-.19C242,348.47,242.77,347.28,242.39,345.59Z" transform="translate(-58.98 -17.3)"/>
    <path class="a661e817-ec69-47f5-9429-0c1c6dc51555" d="M250.21,327.89c-1-3.6-2.35-7.1-2.51-10.88a2.24,2.24,0,0,0,1.88-.84c2.85-3.92,5.59-7.92,8.59-11.72,1.2-1.51,1.89-3.55,3.55-4.53,1.89-1.13,2.72-2.85,3.62-4.62.4-.77.78-1.53,1.72-1.73a3.13,3.13,0,0,0,2.07-1.88,27,27,0,0,1,5.74-7,20.41,20.41,0,0,0,4.69-5.67,10,10,0,0,1,2.28-3.12c4.24-3.31,6.7-8,9.75-12.22,1.71-2.35,3.66-4.52,5.4-6.85,2.87-3.84,3.62-8.65,5.64-12.89a16.54,16.54,0,0,1,4.25-5.53c-.23,1.4-.39,2.81-.71,4.19-1.11,4.94-3.4,9.47-5,14.24-.56,1.68-1.3,3.39.2,5-1.28,4.58-2.55,9.17-3.84,13.74-.37,1.3-.82,2.56-1.23,3.84-1.83.57-2.48,2.14-3.11,3.73-1.3,3.31-2.42,6.7-3.94,9.91-1.75,3.69-4.38,6.85-7,10-.37.47-.84.86-.79,1.49.09,1.12-.61,1.76-1.26,2.51a34,34,0,0,0-4.38,5.41c-1.68,3-3,6.15-5.21,8.87a113.09,113.09,0,0,1-7.82,9.39,6.19,6.19,0,0,1-6.46,1.6,8,8,0,0,0-4-.11C251.68,330.79,250.94,329.34,250.21,327.89Z" transform="translate(-58.98 -17.3)"/>
    <path class="afa666e7-728a-4a05-852e-6cc08654d44f" d="M252.41,332.25a8,8,0,0,1,4,.11,6.19,6.19,0,0,0,6.46-1.6,113.09,113.09,0,0,0,7.82-9.39c2.2-2.72,3.53-5.88,5.21-8.87a34,34,0,0,1,4.38-5.41c.65-.75,1.35-1.39,1.26-2.51-.05-.63.42-1,.79-1.49,2.58-3.15,5.21-6.31,7-10,1.52-3.21,2.64-6.6,3.94-9.91.63-1.59,1.28-3.16,3.11-3.73-2.45,8.17-5,16.3-7.31,24.52-2.06,7.35-4.25,14.67-6.64,21.92-2.86,8.66-5.32,17.5-9.8,25.55a9.78,9.78,0,0,1-.72,1.16c-2.66,3.74-5.34,3.63-8.17,0C258.81,346.41,255.64,339.32,252.41,332.25Z" transform="translate(-58.98 -17.3)"/>
    <path class="afa666e7-728a-4a05-852e-6cc08654d44f" d="M226.2,310.4c3.41-.7,6.2-2.79,9.46-4.42.05,4.62-.2,8.82-2.2,12.9a93.79,93.79,0,0,1-9.32,15,50.74,50.74,0,0,1-22.2,16.82c-.6.24-1.18.53-1.77.8l-2.68.58-4.71,1.11a1.4,1.4,0,0,0-1.15.06c-.83.61-1.83.26-2.73.47-3.92-.39-7.87-.1-11.8-.54s-7.4-1.11-9.34-5.23c-1.54-3.27-3.43-6.36-4.41-9.87.94-.18,1.52.41,2.13,1s1,1.31,1.94,1.42c2.13,2.38,5.15,2.77,8,3.4,5.3,1.2,10.66.79,16.06.52,6.91-.35,12.82-3.15,18.62-6.51,6-3.49,10.27-8.81,14.79-13.87a2.21,2.21,0,0,0,1.66-1.22c1-1.79,2.49-3.12,3.71-4.7,1.55-2,3.2-3.9,3.16-6.63l.06-1.94c.18-.19.33-.46,0-.58s-.63.23-.85.52c-3.12,1.15-6.28,2.21-9.35,3.48a62.88,62.88,0,0,1-22.58,5.15,98.7,98.7,0,0,1-12.63-.38,55.68,55.68,0,0,1-19-5.11c-1.68-.82-3.16-2.08-5.08-2.37-1.88-1.94-4.46-3-6.27-5.05,0-.91.47-.7,1-.33,1.64,1.19,3.65,1.82,5.13,3.26a1.29,1.29,0,0,0,1.05.35c4.72,2.29,9.5,4.5,14.64,5.6a78.81,78.81,0,0,0,33.94.28C217.8,313.37,222.19,312.49,226.2,310.4Z" transform="translate(-58.98 -17.3)"/>
    <path class="b4c6b15f-2c94-4056-b7bb-c4f45f8a737d" d="M157.71,305.18c1.81,2,4.39,3.11,6.27,5.05-.31,1.32.31,2.56.34,3.86.16,5.63,1.12,11.19,1.82,16.77.4,3.2,1.39,6.33,1.28,9.61-.91-.11-1.34-.88-1.94-1.42s-1.19-1.14-2.13-1a67.58,67.58,0,0,1-4.42-15,91.55,91.55,0,0,1-1.59-17.72Z" transform="translate(-58.98 -17.3)"/>
    <path class="afa666e7-728a-4a05-852e-6cc08654d44f" d="M301.37,261.87c-1.5-1.6-.76-3.31-.2-5,1.6-4.77,3.89-9.3,5-14.24.32-1.38.48-2.79.71-4.2.39-1.35.71-2.73,1.18-4.06,1.18-3.35,1.65-6.89,3.07-10.19a59.17,59.17,0,0,0,4-13.52c.29-1.72.34-3.59,1.41-5,2-2.59,2.6-5.59,3.2-8.64,1-2.34,2.12-4.64,2.36-7.19a16.56,16.56,0,0,1,1.15-4.3c1.64-4.35,3.41-8.65,4.74-13.11,1.05-3.37,2-6.78,3.2-10.1.65-1.8.6-4,2.58-5.17-.72,3.74-2.57,7.17-3,11l-.57,1.9a107.46,107.46,0,0,0-4,12.47c-1.2,2.12-1.53,4.53-2.27,6.8-2.43,7.49-4.85,15-7.21,22.48-1,3.14-1.85,6.32-2.77,9.48-1.76,5.62-3.68,11.2-5.26,16.87-2.06,7.43-4.44,14.76-6.66,22.14C301.83,260.81,301.58,261.34,301.37,261.87Z" transform="translate(-58.98 -17.3)"/>
    <path class="afa666e7-728a-4a05-852e-6cc08654d44f" d="M125.56,272.41l.08.4-.37,1.17c-1,.64-.79,1.73-1,2.65-1,.56-.83,1.88-1.83,2.6-1.05-8-3.15-15.7-5.37-23.72C112.9,263,106.66,268,100.64,273.38c.43-1.89.4-3.89,1.92-5.36l.74-.75c.94.08,1.3-.73,1.9-1.19.83-.63,1-1.87,2-2.29.94.09,1.32-.22.8-1.15h0c2.21-.28,3.5-1.81,4.72-3.45.46-.34,1-.58,1.2-1.19a.78.78,0,0,0,.69-.86l.79-1.14c.93-.77,1.84-1.41,3-.29.28.26.85.23,1.29.33a3.81,3.81,0,0,0,.09,1c1.84,4.53,2.68,9.39,4.63,13.88C124.34,271.74,124.91,272.1,125.56,272.41Zm-1.14,1a2.71,2.71,0,0,0-.16.27s.09.11.12.1a1.58,1.58,0,0,0,.24-.15Z" transform="translate(-58.98 -17.3)"/>
    <path class="b837fe73-7f4b-49f3-a2a7-5ae2c35bdbc2" d="M103.3,267.27l-.74.75c-.36-1.3.37-2.37.74-3.51.21-.65.38-1.32.57-2a8.54,8.54,0,0,0,1.47-3.4c.72-1.07.73-2.38,1.25-3.52,3.28-7.53,5.75-15.2,4.14-23.59-.17-.88-.44-1.75-.67-2.62h0a17.64,17.64,0,0,1,4,6.91c.78,2.28.39,5.13,0,7.63a37.26,37.26,0,0,1-5.66,14.45c-.59.9-1.59,1.77-1.48,3.08A32.38,32.38,0,0,0,103.3,267.27Z" transform="translate(-58.98 -17.3)"/>
    <path class="ad9776e2-114e-4874-8f54-342cd58f8583" d="M240.47,330.6c-.22,0-.4-.07-.24-.35Z" transform="translate(-58.98 -17.3)"/>
    <path class="ad9776e2-114e-4874-8f54-342cd58f8583" d="M240.86,331.78c-.2,0-.4-.08-.26-.36Z" transform="translate(-58.98 -17.3)"/>
    <path class="ad9776e2-114e-4874-8f54-342cd58f8583" d="M241.65,333.63c-.2,0-.37,0-.21-.25A.57.57,0,0,1,241.65,333.63Z" transform="translate(-58.98 -17.3)"/>
    <path class="a6af5ee5-0b20-489d-8e68-af6cc92206a7" d="M89.78,91.94a.53.53,0,0,1,.35,0,.7.7,0,0,0,.8.36l0,0c1,1.41,1.85,3.15,3.2,4.18,3.58,2.72,7.25,5.37,11.59,6.85a14.17,14.17,0,0,0,4.67,2.66c3.52,1.4,7.31,1.48,10.93,2.37,2.22.56,4.12-.28,5.88-1.54a59.83,59.83,0,0,0,17.76-4.23c2.25-.84,4.18-2.65,6.82-2.35l.81,2.29a51.76,51.76,0,0,0-6,2.1,40.88,40.88,0,0,1-17.72,4.56c-2,0-3.79-.42-4.51,2.51-.66,2.67-3.14,4.79-2.81,7.91a1,1,0,0,1-.31.7c-.66.73-.41,1.51-.34,2.37.17,2.05,2.09,2.94,2.8,4.55,2.16,4.85,4.6,9.63,4.74,15.13a7,7,0,0,0,1.09,3.89c.63.91,1.68,0,2.57.23a8,8,0,0,0,6-.72c.7-.42,1.87-1.11,2.26-.84,2,1.35,3.88.94,5.9.39a2.49,2.49,0,0,1,1.7,0c1.62.93,3.14.14,4.68-.14,1.08-.19,2.14-.54,3.22-.73.64-.12,1.56-.12,1.22.88-.41,1.24.54,1.76,1,2.57a39.24,39.24,0,0,1-7.14,4.18c-3.87,1.77-7.48,4.12-11.63,5.25-4.79,1.31-9.5,3-14.52,3.27a125.56,125.56,0,0,1-16.91-.09A123.79,123.79,0,0,1,92,157.9c-1.69-.38-3.71-.7-4.51-2.54a2.68,2.68,0,0,0-2.1-1.73c-.15-.17-.29-.34-.43-.52l-.44.95a2,2,0,0,0-1.84,1.19,4.93,4.93,0,0,1-3.94,2.51c-4.29.27-8.51,1.29-12.84,1a3.51,3.51,0,0,1-2.41-1.09c-.95-1-1.95-1.87-2.93-2.81l-.51-2c3.55-1.82,6.38-4.67,9.2-7.32s6-5.08,7.88-8.63a.92.92,0,0,1,.64-.39c1.34-.13,1.8-1.15,2.27-2.17a5.68,5.68,0,0,1,1.53-2c2.67-2.27,5.28-4.41,7.11-7.67,2.15-3.87,3-8.19,5.18-12,1.45-2.56,1.39-5.84,1.4-8.94a11.42,11.42,0,0,0-5.5-10.24C89.73,93,89.76,92.46,89.78,91.94Zm13.58,47.66c-.07,1.05.65,1.82.93,2.74.39,1.29,1.09,1.21,2,.66a13.66,13.66,0,0,1,13.19-.4c2.06.94,4.1,1.92,6.45,1.89.41,0,.82,0,1-.37s-.31-.66-.51-1c-.1-.68.09-1.43-.43-2l-.07-.53c-.49-5.69-2.07-11.06-6-15.33-4.14-4.54-10.37-4.07-13.4.15S102.11,134.35,103.36,139.6Z" transform="translate(-58.98 -17.3)"/>
    <path class="afa666e7-728a-4a05-852e-6cc08654d44f" d="M235.93,168.23a3.51,3.51,0,0,0-1.71.8l-1.13.67a121.54,121.54,0,0,1-19.41,6.23c-8.76,2-17.53,4-26.38,5.64a125.74,125.74,0,0,0-18.65,4.51c-3.56,1.26-6.52,3.64-9.59,5.8a2.85,2.85,0,0,0-1.39.9l-2.37,1.9h0a5.1,5.1,0,0,0-2.06,1.14,30.91,30.91,0,0,1-9,3.37,41,41,0,0,1-12,.45c-6.77-.69-13.22-2.49-18.62-6.78-2.95-2.34-5.42-5.24-6.25-9.15-.48-2.25-.45-2.3,1.9-2.26a6.51,6.51,0,0,0,.77,0,9.8,9.8,0,0,0,3.15.06,62.09,62.09,0,0,0,9.35-.1c2.76.06,5.43-.64,8.14-.89.62,1.12,1.73,1.19,2.8,1.32,5,1.89,9.95,1.52,14.87-.22A44.34,44.34,0,0,0,159.18,176c4-2.81,8.79-3.85,13.35-5.33,9.56-3.09,19.6-3.79,29.41-5.64a157.58,157.58,0,0,0,15.92-3.68A123.74,123.74,0,0,0,231,156.53,57.6,57.6,0,0,0,242.41,150c2.29-1.68,4.43-3.56,6.64-5.35a1.25,1.25,0,0,0,1.77.1c2.05-1.32,4.33-2.2,6.09-4.08s4.2-2.76,5.66-4.93c.17-.25.69-.27,1.05-.39.06,1.29-.66,2.35-1.11,3.48-2.22,5.65-4.74,11.14-8.92,15.68A61.78,61.78,0,0,1,235.93,168.23Z" transform="translate(-58.98 -17.3)"/>
    <path class="afa666e7-728a-4a05-852e-6cc08654d44f" d="M85.34,153.63a2.68,2.68,0,0,1,2.1,1.73c.8,1.84,2.82,2.16,4.51,2.54a123.79,123.79,0,0,0,15.9,2.53,125.56,125.56,0,0,0,16.91.09c5-.25,9.73-2,14.52-3.27,4.15-1.13,7.76-3.48,11.63-5.25a39.24,39.24,0,0,0,7.14-4.18c1,0,1.35-1.16,2.3-1.21.59,0,1.11,0,1.19-.78l.75-.41a4.52,4.52,0,0,0,3.13-.85,36.93,36.93,0,0,1,9.49-5.23,2,2,0,0,0,.92-.68c1.46-1.88,3.65-2.53,5.68-3.44,4.12-1.85,8.7-2.51,12.61-4.93a17,17,0,0,1,3.21-1.73c4.28-1.56,8.68-2.92,12.18-6.13a7.66,7.66,0,0,1,3.44-1.68c2.38-.56,4.84-1.19,6.07-3.72l.74-.11a1.18,1.18,0,0,0,1.43.26c1.21-.46,2.44-.87,3.62-1.4a28.05,28.05,0,0,1,7.4-2.22c1.1-.16,2.15.17,2.73-1.14.45-1,2-1.39,1.63-2.88.7-.15,1.15-.89,1.94-.83.07.3.13.7.53.6a1.34,1.34,0,0,0,1-1.36h0c.65,0,1.39.17,1.57-.78l.33-.42.43,0c1.25,1.65,2.86.89,3.68,0,1.47-1.67,3.79-1.65,5.24-3.19.35-.36.85,0,1.27.19,0,.72-.58,1.11-.9,1.64l-.67.33-.8.79,0,0c-1.36.32-2,1.47-2.87,2.4a11.73,11.73,0,0,0-1.34.78,54.45,54.45,0,0,1-11.11,6.49,35,35,0,0,0-5.85,3.06Q222.45,122,215.87,125c-4.25,1.91-8.39,4-12.66,5.92-5.64,2.47-10.77,5.92-16.34,8.54-2.38,1.49-4.81,2.92-7.15,4.49a82.63,82.63,0,0,0-8.64,6.11c-1.55.43-2.65,1.6-3.87,2.5-2.8,2.07-6,3.65-8.39,6.2a149.2,149.2,0,0,1-17,9.73,53.14,53.14,0,0,1-14.6,4.53,91.75,91.75,0,0,1-13.35,1c-4.43-.09-8.8-.75-13.2-1.23-.85-1.23-2.37-.78-3.5-1.4-4.46-2.43-8.11-5.59-10-10.46C86.51,158.49,85.5,156.17,85.34,153.63Z" transform="translate(-58.98 -17.3)"/>
    <path class="afa666e7-728a-4a05-852e-6cc08654d44f" d="M175.33,213.07a66.09,66.09,0,0,1,4.62-8.31c1.76-2.45,3.08-3,5.89-1.7,9.14,4.18,18.79,5.59,28.74,5.39a102.4,102.4,0,0,0,30.66-5.67,12.71,12.71,0,0,0,3.43-1.35,1.59,1.59,0,0,0,1.5-.7l.45-.16a5,5,0,0,0,2.34-.81,2.29,2.29,0,0,0,1.61-.66l1.58-.65c2.58-.72,4.65-2.45,7-3.55l1.46-.13c.48.37,1.33.48,1,1.42-1,.39-2.51.15-2.55,1.88a6.51,6.51,0,0,0-1.29.43,90.42,90.42,0,0,1-14.77,6.85,159.54,159.54,0,0,1-15.85,5.34,139,139,0,0,1-19.83,3.76c-7.84.91-15.64.65-23.46.81-4.51.1-8.63,1.13-11.08,5.5-2.57,4.57-4.16,9.25-3.32,14.68.35,2.21,1.16,2.84,3.1,3a23,23,0,0,1,7.34,1.79,10.6,10.6,0,0,0,4.14.94c2.47,1.82,5.4,2.36,8.31,2.65s6,1,9.06,1c4.13,0,8.27-.34,12.39.16.35,0,.74-.23,1.11-.32a76.75,76.75,0,0,0,8-2c1.7-.61,4-.4,4.91-2.57h.76c.51.39.67,0,.8-.39A39.57,39.57,0,0,0,245,233.26a33.06,33.06,0,0,0,10.64-13.39c1.72-4,3.09-8.13,4.48-12.25.61,0,1.21-.06,1.57.57-.09,1.46-1,2.63-1.45,4-2.9,8.43-5,17.15-9.26,25.08l-1,1.45a.55.55,0,0,0-.51.45,26.32,26.32,0,0,0-4.27,3.23c-3.42,1.51-6.65,3.4-10.14,4.79-7.39,3-15.11,4-23,4.37a76.72,76.72,0,0,1-18.94-1.69c-4.65-1-8.92-3.09-13.29-4.88a20.79,20.79,0,0,1-7.71-6c-2.08-2.41-1.42-5.42-1.13-8.24A68.2,68.2,0,0,1,175.33,213.07Z" transform="translate(-58.98 -17.3)"/>
    <path class="ad498994-d079-4061-a63e-4f9345d0d323" d="M89.71,93.51a11.42,11.42,0,0,1,5.5,10.24c0,3.1.05,6.38-1.4,8.94-2.18,3.85-3,8.17-5.18,12-1.83,3.26-4.44,5.4-7.11,7.67a5.68,5.68,0,0,0-1.53,2c-.47,1-.93,2-2.27,2.17a.92.92,0,0,0-.64.39c-1.88,3.55-5.09,6-7.88,8.63s-5.65,5.5-9.2,7.32a.75.75,0,0,1-.06-.95A14.66,14.66,0,0,0,61.17,147c2.53-1.9,3.85-4.82,6-7.09,3.14-3.32,4.78-7.86,8.32-10.92a44.09,44.09,0,0,0,6-6.74,49.52,49.52,0,0,0,8.06-14.66,9.8,9.8,0,0,0-1-8.64Z" transform="translate(-58.98 -17.3)"/>
    <path class="afa666e7-728a-4a05-852e-6cc08654d44f" d="M129.18,235.7a24,24,0,0,0,.31,5.08,59.13,59.13,0,0,0-.42,8.2l-.08.74a2.77,2.77,0,0,0-.31,2.39,61.74,61.74,0,0,0-1,8.89c0,1.39-1.18,2.54-.77,4l-.38,1.95-1.27-.39A99.67,99.67,0,0,0,127.07,252c.1-4.25,1-8.5.12-12.77-.08-6.88-2.39-13.11-5.87-18.91-3.15-5.25-8.53-8.25-12.9-12.27a20.35,20.35,0,0,1-2.18-1.89c-4-4.5-7.1-9.6-10.29-14.62-2-3.17-4.4-5.58-8.23-6.21-.8-1.34-1.77-2.3-3.5-1.6L82.45,183c-.29-1.14.35-1.38,1.32-1.57a48.77,48.77,0,0,1,7.44-.58L98.58,182c.86,3.65,1.31,7.37,2.25,11a28.43,28.43,0,0,0,5.62,10.66,35.6,35.6,0,0,0,6.85,7c3.22,2.3,6.06,5,9,7.54,4.18,4.8,5.59,10.73,6.84,16.73Z" transform="translate(-58.98 -17.3)"/>
    <path class="afa666e7-728a-4a05-852e-6cc08654d44f" d="M87.17,169.14a7.65,7.65,0,0,0,1.38,3.17c.53.73.6,1.2-.49,1.17-6.34-.17-12.81-.2-18.46-3.49a16.57,16.57,0,0,1-7.92-11.27c.59,0,1.23,0,1.64.45,2.5,2.93,5.87,2.18,8.86,1.7,4.27-.67,8.55-.53,12.81-1,.24.49,0,1.13.44,1.56A17.84,17.84,0,0,0,87.17,169.14Z" transform="translate(-58.98 -17.3)"/>
    <path class="bd484e79-193b-451f-b375-8388dd24703d" d="M61.17,147a14.66,14.66,0,0,1-1.23,4.91,26.27,26.27,0,0,1-.68-10.77c.2-.15.57-.3.58-.46.09-3.83,3.14-6.26,4.53-9.48a17.85,17.85,0,0,1,1.88-3.82c2.25-2.91,4.15-6.08,6.68-8.8a33.25,33.25,0,0,0,6.25-8.4c.41-.88,1.36-1.82-.09-2.66a47,47,0,0,0,5.39-7.67,27.23,27.23,0,0,0,4.14-6.75c.39-.89.4-.89,1.16-1.19,0,.52,0,1-.07,1.57-.4,1.82-.8,3.65-1.19,5.47A80.32,80.32,0,0,1,77.94,116.7c-1.93,2.56-3.24,5.6-5.19,8.16A121.24,121.24,0,0,0,65.37,136C63.32,139.44,62.28,143.26,61.17,147Z" transform="translate(-58.98 -17.3)"/>
    <path class="bd484e79-193b-451f-b375-8388dd24703d" d="M84.22,183.71c1.73-.7,2.7.26,3.5,1.6-.68.73.28,1,.39,1.57.67,4.06,2.68,7.55,4.94,10.85,2.79,4.1,5.23,8.23,4.44,13.47-.11.73.3,1.77-.71,2a2.28,2.28,0,0,1-2.24-.85c-.69-.82-1.3-1.83-2.52-2h0l-.37-.41h0a.69.69,0,0,0-.53-.71l0,.06c-.86-1.76-.92-4.06-3.26-4.83-1.55-1.83-2-4.23-3.14-6.28-.76-3.82-2.08-7.53-2.28-11.46,0-.57,0-1.15,0-1.72Z" transform="translate(-58.98 -17.3)"/>
    <path class="afa666e7-728a-4a05-852e-6cc08654d44f" d="M248.28,249.37A3.68,3.68,0,0,1,248,253c-3.28.14-5.87,2.09-8.7,3.38-1.18,0-2.09.79-3.13,1.21a2.8,2.8,0,0,0-1.64.73c-4.13.74-8.17,2-12.41,2.05A11.18,11.18,0,0,0,217,261c-10.23.1-20.47.34-30.45-2.59a52.74,52.74,0,0,1-10.66-4.13c-2.08-1.16-4.08-2.58-6.48-3.1l-1.64-1-.74-.49-.37-1.13c1.88-1.37,3.69-.44,5.1.62,5,3.73,10.67,5.68,16.54,7.37a78.81,78.81,0,0,0,37.16,1.4A64.49,64.49,0,0,0,248.28,249.37Z" transform="translate(-58.98 -17.3)"/>
    <path class="b837fe73-7f4b-49f3-a2a7-5ae2c35bdbc2" d="M79.09,107.55c1.45.84.5,1.78.09,2.66a33.25,33.25,0,0,1-6.25,8.4c-2.53,2.72-4.43,5.89-6.68,8.8a17.85,17.85,0,0,0-1.88,3.82c-1.39,3.22-4.44,5.65-4.53,9.48,0,.16-.38.31-.58.46.16-7.12,2.79-13.33,7-19a8.21,8.21,0,0,0,.48-.81C70.25,116.25,75.11,112.3,79.09,107.55Z" transform="translate(-58.98 -17.3)"/>
    <path class="a661e817-ec69-47f5-9429-0c1c6dc51555" d="M85,159.92c-4.26.42-8.54.28-12.81,1-3,.48-6.36,1.23-8.86-1.7-.41-.48-1-.43-1.64-.45-.92-1.13-.8-2.58-1.17-3.88,1,.94,2,1.85,2.93,2.81a3.51,3.51,0,0,0,2.41,1.09c4.33.31,8.55-.71,12.84-1a4.93,4.93,0,0,0,3.94-2.51,2,2,0,0,1,1.84-1.19C84.64,156,84.82,158,85,159.92Z" transform="translate(-58.98 -17.3)"/>
    <path class="b837fe73-7f4b-49f3-a2a7-5ae2c35bdbc2" d="M166.68,248.6c.12.38.25.75.37,1.13,0,.54,0,1.08,0,1.62l0,1.53a15.15,15.15,0,0,0-1.18,4.1,44.83,44.83,0,0,1-4.4,12.09c-.18.37-.32,1-.95.71s-.47-.72-.31-1.19a1.5,1.5,0,0,0-.13-1.64c.16-.95.33-1.89.49-2.84.21-.75.43-1.49.64-2.24a5.63,5.63,0,0,0,.72-2.62c.89-2.82,1.69-5.66,2.7-8.43C165,249.91,164.94,248.35,166.68,248.6Z" transform="translate(-58.98 -17.3)"/>
    <path class="bb4036ef-2bce-4478-a899-4b09128e776e" d="M84.22,183.71,82.5,185a4.1,4.1,0,0,1,0-2Z" transform="translate(-58.98 -17.3)"/>
    <path class="b4c6b15f-2c94-4056-b7bb-c4f45f8a737d" d="M340.49,129.06a27.51,27.51,0,0,1-.78,6.26c-1.73,1.81-1.32,4.24-1.87,6.4l-2.88,9.6c-.65.27-1.32.52-2,.81s-1.41.29-1.37-.44c.13-2.13-2.91-3.2-1.78-5.61.07-.14-.19-.63-.32-.64-2.22-.22-1.67-2.24-2.35-3.47-.54-1-.31-1.42.73-1.65,1.23-.27,1.2-.95.82-2-.53-1.54-1.67-2.71-2.28-4.17-.19-.44.15-1.17-.51-1.34s-.7.61-.93,1c-.36.61-.78.87-1.41.4a.94.94,0,0,1-.1-1.63,3.12,3.12,0,0,0,1-1.63c.7-3.09,1.58-6.17.19-9.32a1.85,1.85,0,0,1-.06-1.31,2.76,2.76,0,0,0-.49-2.76,5.34,5.34,0,0,1-.85-3.51c0-1.3-.24-2.61-.24-3.87,0-1.8-1.88-2.75-1.68-4.46a6.28,6.28,0,0,0-2.89-6.53c-.29-.2-.42-.64-.62-1-.09-.78.21-1.61-.33-2.33a76.07,76.07,0,0,0-1.58-17.22c2.4-.07,3.74,1.7,5.11,3.17,3.11,3.37,4.64,7.74,6.91,11.64A50.21,50.21,0,0,1,333.28,108c.73,3.25,2.23,6.28,2.24,9.77,0,2.92,1.24,5.77,1.15,8.79a4.3,4.3,0,0,0,1.46,3.31C339.07,130.62,339.54,128.88,340.49,129.06Z" transform="translate(-58.98 -17.3)"/>
    <path class="bd484e79-193b-451f-b375-8388dd24703d" d="M340.49,129.06c-.95-.18-1.42,1.56-2.36.79a4.3,4.3,0,0,1-1.46-3.31c.09-3-1.14-5.87-1.15-8.79,0-3.49-1.51-6.52-2.24-9.77A50.21,50.21,0,0,0,328,93.46c-2.27-3.9-3.8-8.27-6.91-11.64-1.37-1.47-2.71-3.24-5.11-3.17a28,28,0,0,0-1.62-6.19c-1-2.44-1.72-5-2.57-7.49a25.67,25.67,0,0,1,3.47,3.89c1.6,2.19,3,4.62,5,6.38,3.79,3.34,6.67,7.37,9.65,11.33,2.72,3.59,4.57,7.74,6.68,11.83a2.62,2.62,0,0,0,.41-2.92c-1-2.34-1.82-4.72-2.72-7.08l1.07-.39c.7,2.15,1.41,4.3,2.07,6.46a.87.87,0,0,0,.62.64C341.19,106.26,341.53,117.61,340.49,129.06Z" transform="translate(-58.98 -17.3)"/>
    <path class="bb4036ef-2bce-4478-a899-4b09128e776e" d="M337.84,141.72c.55-2.16.14-4.59,1.87-6.4a20.61,20.61,0,0,1-.91,4.73,1.87,1.87,0,0,0-.3,1.5h0Z" transform="translate(-58.98 -17.3)"/>
    <path class="afa666e7-728a-4a05-852e-6cc08654d44f" d="M338.5,141.55a1.87,1.87,0,0,1,.3-1.5c0,.48-.06.95-.1,1.42A.5.5,0,0,1,338.5,141.55Z" transform="translate(-58.98 -17.3)"/>
    <path class="b837fe73-7f4b-49f3-a2a7-5ae2c35bdbc2" d="M334.26,88.4c.9,2.36,1.76,4.74,2.72,7.08a2.62,2.62,0,0,1-.41,2.92c-2.11-4.09-4-8.24-6.68-11.83-3-4-5.86-8-9.65-11.33-2-1.76-3.43-4.19-5-6.38A25.67,25.67,0,0,0,311.74,65c-1.08-1.63-1.49-3.65-3-5l0,0-.23-.43-2.83-4.09c.91-.44,1.37.31,1.95.62,3.13,1.7,5.42,4.55,8.52,6.3.34,1.06,1.75,1.11,2.08,2.19a1.53,1.53,0,0,0,1.06.84h0a.35.35,0,0,0,.38.4h0a.37.37,0,0,0,.45.37l.6.42L326,72.93a.6.6,0,0,0,.44.62l0,0a1.63,1.63,0,0,0,1.1,1.64l.81.93C329.79,80.48,332.08,84.41,334.26,88.4Z" transform="translate(-58.98 -17.3)"/>
    <path class="b4c6b15f-2c94-4056-b7bb-c4f45f8a737d" d="M334.26,88.4c-2.18-4-4.47-7.92-5.9-12.26l1,.5c.7,2.25,2.64,3.76,3.47,6,.69,1.86,1.67,3.61,2.53,5.41Z" transform="translate(-58.98 -17.3)"/>
    <path class="b837fe73-7f4b-49f3-a2a7-5ae2c35bdbc2" d="M320.19,66.17a.37.37,0,0,1-.45-.37Z" transform="translate(-58.98 -17.3)"/>
    <path class="afa666e7-728a-4a05-852e-6cc08654d44f" d="M319.74,65.8a.35.35,0,0,1-.38-.4Z" transform="translate(-58.98 -17.3)"/>
    <path class="b837fe73-7f4b-49f3-a2a7-5ae2c35bdbc2" d="M96.72,40.42a65.87,65.87,0,0,1,16.39-11.37,16.19,16.19,0,0,0,1.6-1c4.1-1.77,8.17-3.58,12.45-5a62.83,62.83,0,0,1,25.15-2.65c5,.46,9.75,2.07,14.47,3.71,1.16.41,2.12.51,3-.38a92.1,92.1,0,0,1,10.88-4c14.67-4.27,28.63-3,41.76,5.09a3.68,3.68,0,0,0,4.06.38c7.67-3.75,15.86-4.51,24.15-3.2a52.12,52.12,0,0,1,18.2,6.6c3.3,1.93,6.39,4.12,9.48,6.34a73,73,0,0,1,12.36,13,3.11,3.11,0,0,1,.89,1.85,4.2,4.2,0,0,1-1.21-.56c-2.61-2.44-4.86-5.28-7.92-7.22-1.15-.73-2.55-1.16-3.5-2.08-3.06-2.94-6.69-4.52-10.67-6-7.4-2.66-15-3.2-22.7-3.78-5.12-.38-9.59,1.7-14.27,3.07a6.32,6.32,0,0,1-6.47-1.42,27.7,27.7,0,0,0-3.58-2.58c-2.65-1.91-5.88-2.23-8.9-3.14a48.8,48.8,0,0,0-10.11-1.78c-5.08-.4-10,.77-14.79,1.89-5.37,1.26-11.06,2.2-15.74,5.83-4.17,3.23-9.11,5.3-13.42,8.43A115.16,115.16,0,0,1,137.6,53a51.68,51.68,0,0,1-10.16,3.28c-1.44.3-3.23.83-4.57-.64a13,13,0,0,1,1.18-1.27l10.66-8.86c3.41-1.49,6.27-3.9,9.13-6.13,4.49-3.51,9.63-5.83,14.36-8.86.42-.28,1.13-.35,1.14-.93s-.75-.85-1.26-1a8.07,8.07,0,0,0-1.91-.26c-1.6-.09-3.23,0-4.81-.25a54,54,0,0,0-19.3,1,68.73,68.73,0,0,0-19.78,7.83c-1.85,1.06-3.89,1.81-5.57,3.14a33.82,33.82,0,0,1-7.31,4.63c-2,.85-2.65.41-2.68-1.67C96.7,42.11,96.72,41.27,96.72,40.42Z" transform="translate(-58.98 -17.3)"/>
    <path class="b4c6b15f-2c94-4056-b7bb-c4f45f8a737d" d="M134.71,45.49l-10.66,8.86a13,13,0,0,0-1.18,1.27A11.44,11.44,0,0,0,119.2,59c-.46.64-.61,1.16.21,1.56,2,1,3.84,2.46,6.06,2.41,5.45-.11,10.94-.16,15.93-3a99.63,99.63,0,0,0,10.44-6.65c2.58-1.93,5-4.22,7.79-5.7,4.73-2.53,9.27-5.43,14.15-7.69,1.94-.9,3.71-2.21,5.71-2.91,4.08-1.43,8.37-2.08,12.6-3,1.81-.38,3.7.13,5.39-.58a10.67,10.67,0,0,1,5.18-.44c2.71.22,5.46,0,8.1,1.06s5.64,1.48,8.24,2.82a14,14,0,0,0,5,1.5c5.12.54,10,1.6,13.95,5.28a22,22,0,0,0,5.58,3.88,4.11,4.11,0,0,0,2.41.37,26.8,26.8,0,0,1,7-.36c2.4.34,4.73-.15,7.12.07,3.13.29,6.37-.2,9.4.81a16.7,16.7,0,0,0,5.8.7c3.24-.13,6.11,1.11,8.75,2.15,3.69,1.45,7.74,3.1,9.92,7,.31.57.87,1.26,1.72,1s1.13-1,1.15-1.83a1.56,1.56,0,0,1,.76,1.33,7.46,7.46,0,0,0,.93,3.68,12.3,12.3,0,0,1,1.4,5.15,10.87,10.87,0,0,0-1.14.2c-1.69.47-3.32,1.57-5.16.31-.52-.35-1,.14-1.44.65a1.88,1.88,0,0,1-3.14,0c-.25-.32-.35-.72-.84-.44a1,1,0,0,0-.58.94c.09.7.22,1.4.36,2.1.24,1.18-.59,1.6-1.31,1.16-2.14-1.32-3.66.36-4.9,1.24a12,12,0,0,1-7.29,2.47c-1.38-2.26-2.48-4.67-3.91-6.91s-3.4-3.93-4.86-6.13c-1.23-1.84-3.43-3-5.44-4.69A3.79,3.79,0,0,0,261,61c.8,1.21,1.69,2.38,2.54,3.56l.46,1.18a3.12,3.12,0,0,0-.49.31c-1,.89-.84,3-2.45,3-1.07,0-2.66,1.43-3.39-.63a1.43,1.43,0,0,0-.42.34c-.4.65-.82.49-1.27.07a2.73,2.73,0,0,0-2.17-.68,3.33,3.33,0,0,1-3.07-1.34,1.33,1.33,0,0,0-1.9-.41c-1.24.86-2.15.5-3-.49-.21-.22-.62-.49-.84-.42-2.26.73-3.41-1-4.83-2.12-1.07-.87-2-1.46-3.32-.08-.65.71-1.91,1.43-2-.63a.74.74,0,0,0-.81-.7c-1.51.11-2.73-.75-4.09-1.11s-2.51-.7-3.92.1a4.41,4.41,0,0,1-5-.15c-.56-.4-1.08-1.48-2.13-1a7.09,7.09,0,0,1-5.32-.06,3,3,0,0,0-2.42.46c-2.43,1.37-4.66,3.07-7.42,3.89-1.11.33-2.07.68-3.15.13.17-.67.72-1,1.12-1.54,1.93-2.44,4.86-3,7.52-4.05.57.63.71.24.78-.33,3.53-1.43,7.32-1.38,11-1.93,2.33-.34,4.8.1,7-1.13,1.12-.29,2.25-.56,3.36-.88a1.23,1.23,0,0,0,.84-1.21,1,1,0,0,0-.74-1c-1.27-.47-2.44-1.28-3.88-1.17l-2-.8a5.08,5.08,0,0,0-.85-.76,58.12,58.12,0,0,0-22.11-7c-.26-.36-.52-.38-.79,0l-3.13.32c-.34-.65-.86-.52-1.49-.47-2.92.19-5.49,1.51-8.17,2.45-4.95,1.75-9.23,4.69-13.38,7.83a3.93,3.93,0,0,0-3.29.56,31.1,31.1,0,0,1-4.86,2.44c-1.53.64-3.12,1.42-4.83.32a1.56,1.56,0,0,0-1.68.12c-2.74,1.77-6,2.46-8.84,4-2,1.1-3.88,2.57-6.08,3.38-3.21,1.18-6.42,2.35-9.56,3.68A22.65,22.65,0,0,1,125,69a92,92,0,0,1-9.07-1.62c-.78-.17-1-.75-1.34-1.28-.6-.91-1.32-1.67-2.55-1.38a9.82,9.82,0,0,1-2.48.19,3.12,3.12,0,0,0-2.63,4.28,1.52,1.52,0,0,1-.47,2,10.84,10.84,0,0,1-4.29,2.48l-1.56-.07c-.41-.9-1-1.25-2-.72l-1.16-.42c-.11-1-.95-1.64-1.49-2.38-.87-1.18-2-2.21-1.64-3.87,1.34.81,1.81,2.53,3.43,3.09s3.82-.15,3.37-1.23c-.91-2.22-.46-4.51-.71-6.74-.34-3.11,0-6.42,2.1-8.85a18.78,18.78,0,0,1,9.82-6.38c3-.7,6.09-1.21,9.15-1.74a5.31,5.31,0,0,1,1.94.11,15.56,15.56,0,0,0,5.61.05,2.55,2.55,0,0,1,1.7.1A10.3,10.3,0,0,0,134.71,45.49Z" transform="translate(-58.98 -17.3)"/>
    <path class="bd484e79-193b-451f-b375-8388dd24703d" d="M296.72,57.57c0,.84-.26,1.59-1.15,1.83s-1.41-.47-1.72-1c-2.18-3.94-6.23-5.59-9.92-7-2.64-1-5.51-2.28-8.75-2.15a16.7,16.7,0,0,1-5.8-.7c-3-1-6.27-.52-9.4-.81-2.39-.22-4.72.27-7.12-.07a26.8,26.8,0,0,0-7,.36,4.11,4.11,0,0,1-2.41-.37,22,22,0,0,1-5.58-3.88c-4-3.68-8.83-4.74-13.95-5.28a14,14,0,0,1-5-1.5c-2.6-1.34-5.56-1.7-8.24-2.82s-5.39-.84-8.1-1.06a10.67,10.67,0,0,0-5.18.44c-1.69.71-3.58.2-5.39.58-4.23.88-8.52,1.53-12.6,3-2,.7-3.77,2-5.71,2.91-4.88,2.26-9.42,5.16-14.15,7.69-2.78,1.48-5.21,3.77-7.79,5.7A99.63,99.63,0,0,1,141.4,60c-5,2.85-10.48,2.9-15.93,3-2.22.05-4.09-1.45-6.06-2.41-.82-.4-.67-.92-.21-1.56a11.44,11.44,0,0,1,3.67-3.39c1.34,1.47,3.13.94,4.57.64A51.68,51.68,0,0,0,137.6,53a115.16,115.16,0,0,0,20.72-12.5c4.31-3.13,9.25-5.2,13.42-8.43,4.68-3.63,10.37-4.57,15.74-5.83,4.75-1.12,9.71-2.29,14.79-1.89a48.8,48.8,0,0,1,10.11,1.78c3,.91,6.25,1.23,8.9,3.14a27.7,27.7,0,0,1,3.58,2.58,6.32,6.32,0,0,0,6.47,1.42c4.68-1.37,9.15-3.45,14.27-3.07,7.69.58,15.3,1.12,22.7,3.78,4,1.44,7.61,3,10.67,6,.95.92,2.35,1.35,3.5,2.08,3.06,1.94,5.31,4.78,7.92,7.22a4.2,4.2,0,0,0,1.21.56,36.41,36.41,0,0,1,4.34,6.33c0,.62-.13,1.32.78,1.46Z" transform="translate(-58.98 -17.3)"/>
    <path class="a661e817-ec69-47f5-9429-0c1c6dc51555" d="M299.81,67.73a12.3,12.3,0,0,0-1.4-5.15,7.46,7.46,0,0,1-.93-3.68c2.17,3.37,3.41,7.17,4.93,10.84,1.22,4.26,2.64,8.47,3.47,12.85a106.64,106.64,0,0,1-.11,18,54,54,0,0,1-2.1,8.6c-1.67.51-1.3,2.23-1.95,3.35-3.09,5.29-4.77,11.28-7.94,16.54-2.48,4.11-5.62,7.69-10,9.63-1.83.81-3.56,2.21-5.76,2.12.3-.72,1.1-.88,1.56-1.43,3.86-4.52,8-8.78,11.41-13.69,4.28-6.16,7.83-12.6,9.3-20,.48-.43.37-1,.41-1.56a3.06,3.06,0,0,0,1.13-1.75,17,17,0,0,0,1.15-4.84c.43-4.46,2.39-8.78,1.21-13.39-.62-2.42-.14-5-1.17-7.37-.52-1.38-1-2.78-1.59-4.11-.45-1,0-2.27-1.13-2.93A3.39,3.39,0,0,0,299.81,67.73Z" transform="translate(-58.98 -17.3)"/>
    <path class="afa666e7-728a-4a05-852e-6cc08654d44f" d="M308.78,59.92c1.47,1.4,1.88,3.42,3,5,.85,2.51,1.58,5,2.57,7.49a28,28,0,0,1,1.62,6.19,76.07,76.07,0,0,1,1.58,17.22c-.74.71-.41,1.56-.33,2.38l-.15,5.81a1.42,1.42,0,0,0,0,2c0,.51-.06,1-.1,1.52-1,.81-1.69,1.68-.36,2.8-.14,1-.28,2-.41,3.06-1.27.39-1.31,1.54-1.42,2.53-.49,4.8-2.39,9.13-4.64,13.27-1.79,3.3-3.43,6.67-5.17,10a75.51,75.51,0,0,1-6.23,9.41.73.73,0,0,0-.74.81l-.42.76c-1.91.32-2.51,2.12-3.48,3.35-1.86,2.39-4.29,4.56-4.33,8h-1.58c.59-3.91,1.85-7.39,4.91-10.21,3.83-3.52,6.44-8,9.24-12.38,4.8-7.47,8-15.62,10.66-24a11.7,11.7,0,0,0,.68-4.19,7,7,0,0,0,.46-3.08.79.79,0,0,0,.29-.82,62.58,62.58,0,0,0,1-9.25,65.1,65.1,0,0,0-.8-16.61c-1-4.44-1.43-9-3.19-13.25Z" transform="translate(-58.98 -17.3)"/>
    <path class="b4c6b15f-2c94-4056-b7bb-c4f45f8a737d" d="M296.72,57.57c-.91-.14-.77-.84-.78-1.46A2.11,2.11,0,0,1,296.72,57.57Z" transform="translate(-58.98 -17.3)"/>
    <path class="afa666e7-728a-4a05-852e-6cc08654d44f" d="M308.57,59.54l.23.43Z" transform="translate(-58.98 -17.3)"/>
    <path class="afa666e7-728a-4a05-852e-6cc08654d44f" d="M151.76,100.19c-2.64-.3-4.57,1.51-6.82,2.35a59.83,59.83,0,0,1-17.76,4.23c-2.21-.12-4.43-.15-6.63-.4-1.59-.18-3.18-1-4.7-.89-2.22.23-3.86-1-5.71-1.62a9.2,9.2,0,0,0-4.44-.58c-4.34-1.48-8-4.13-11.59-6.85-1.35-1-2.15-2.77-3.2-4.18l1.45.59c3.27,2,6.72,1.9,10.24.86,2,.08,3.74-1.53,5.82-.94,2.07,2.13,4.79,3.11,7.44,4.22a24,24,0,0,0,8.25,1.84c3.75.12,7.49.17,11-1.62,3.3-.43,6-2.2,8.79-3.84,1.66-1,3.19-3,5.51-1.89A41.84,41.84,0,0,0,161.8,95C173,96.48,185,90.76,189.89,79.64c2.89-6.54,3.72-13.42,3.83-20.46.34-.31.12-.58-.07-.85.52-1.75,2.27-2.17,3.44-3.21a5.93,5.93,0,0,0,1.28-.38c5.47-2.83,11.41-3.64,17.44-4.09a5,5,0,0,1-1,.56c-3.47,1-6.87,2.18-10.4,2.92-1.48.3-3,.63-4.43,1-2.66.66-4.18,3.33-4.94,5.41-1.15,3.13-.12,6.6,1.75,9.57a41.9,41.9,0,0,1-6,17.44c-.94,1.52-1.68,3.25-3.4,4.14-1.17-1.48-2-1.6-3.41,0-2.72,3.07-6.6,4.17-10.12,5.49a49.21,49.21,0,0,1-9.15,2.41C160.39,100.29,156.12,101,151.76,100.19Z" transform="translate(-58.98 -17.3)"/>
    <path class="ad498994-d079-4061-a63e-4f9345d0d323" d="M91.24,63.83C90.08,62.75,90.17,61,89,59.89c-.06-2.2-.11-4.41-.17-6.61l.08-.39c0-.27.11-.54.17-.81.2-.51.39-1,.59-1.54a9.66,9.66,0,0,0-.2,2.49c.68,3.68.93,7.49,3,10.8Z" transform="translate(-58.98 -17.3)"/>
    <path class="afa666e7-728a-4a05-852e-6cc08654d44f" d="M90.93,92.28a.7.7,0,0,1-.8-.36A.64.64,0,0,1,90.93,92.28Z" transform="translate(-58.98 -17.3)"/>
    <path class="bf9e1a4a-2082-41c6-b6a2-bb25a75acab2" d="M88.89,52.89l-.08.39a1.59,1.59,0,0,1-.06-.3S88.84,52.92,88.89,52.89Z" transform="translate(-58.98 -17.3)"/>
    <path class="b4c6b15f-2c94-4056-b7bb-c4f45f8a737d" d="M92,210.31c1.22.19,1.83,1.2,2.52,2a2.28,2.28,0,0,0,2.24.85c1-.21.6-1.25.71-2,.79-5.24-1.65-9.37-4.44-13.47-2.26-3.3-4.27-6.79-4.94-10.85a7,7,0,0,1,3,4.26c.63,2.27,2.18,4.34,3.59,6.3,1,1.46,2.61,2.53,3.78,3.91,1.4,1.66,3.11,3.16,3.7,5.38a33.17,33.17,0,0,0,4.24,9.05,35.15,35.15,0,0,0,5.55,7,19.54,19.54,0,0,1,3.27,4.27c2,3.42,3.63,7,3.08,11.29-.26,2,.06,4.29-.45,6.11-1,3.43-1.71,7.07-3.87,10.07a23.07,23.07,0,0,0-2.81,4.63l-1.54.86,0-.49a9.79,9.79,0,0,1,.48-1,34.48,34.48,0,0,0,4.64-9.28c1.55-5.67,2.26-11.26-.07-16.93-.89-2.15-2.75-3.92-4.67-3.91-.69-.62-.92-1.65-1.87-2l0,0a1.05,1.05,0,0,0-.75-.75l-.07-.06-.27-.31c-3.47-3.14-7-6.22-10.37-9.45A27.51,27.51,0,0,1,92,210.31Z" transform="translate(-58.98 -17.3)"/>
    <path class="b4c6b15f-2c94-4056-b7bb-c4f45f8a737d" d="M87.89,204.43c2.34.77,2.4,3.07,3.26,4.83A15.42,15.42,0,0,1,87.89,204.43Z" transform="translate(-58.98 -17.3)"/>
    <path class="b837fe73-7f4b-49f3-a2a7-5ae2c35bdbc2" d="M108.11,226.3c1,.37,1.18,1.4,1.87,2,0,.36,0,.73.07,1.09h0A10.08,10.08,0,0,1,108.11,226.3Z" transform="translate(-58.98 -17.3)"/>
    <path class="b837fe73-7f4b-49f3-a2a7-5ae2c35bdbc2" d="M107.32,225.51a1.05,1.05,0,0,1,.75.75A1.15,1.15,0,0,1,107.32,225.51Z" transform="translate(-58.98 -17.3)"/>
    <path class="b4c6b15f-2c94-4056-b7bb-c4f45f8a737d" d="M91.11,209.2a.69.69,0,0,1,.53.71C91.25,209.83,91.13,209.56,91.11,209.2Z" transform="translate(-58.98 -17.3)"/>
    <path class="b4c6b15f-2c94-4056-b7bb-c4f45f8a737d" d="M91.65,209.91l.37.41Z" transform="translate(-58.98 -17.3)"/>
    <path class="bd484e79-193b-451f-b375-8388dd24703d" d="M107,225.14l.27.31C107,225.46,107,225.33,107,225.14Z" transform="translate(-58.98 -17.3)"/>
    <path class="bb4036ef-2bce-4478-a899-4b09128e776e" d="M316.9,107.54c0-.51.07-1,.1-1.52a1.36,1.36,0,0,0,0-2l.15-5.81.66,0c.2.33.33.77.62,1a6.28,6.28,0,0,1,2.89,6.53c-.2,1.71,1.68,2.66,1.68,4.46,0,1.26.27,2.57.24,3.87a5.34,5.34,0,0,0,.85,3.51,2.76,2.76,0,0,1,.49,2.76,1.85,1.85,0,0,0,.06,1.31c1.39,3.15.51,6.23-.19,9.32a3.12,3.12,0,0,1-1,1.63.94.94,0,0,0,.1,1.63c.63.47,1.05.21,1.41-.4.23-.41.19-1.2.93-1s.32.9.51,1.34c.61,1.46,1.75,2.63,2.28,4.17.38,1.09.41,1.77-.82,2-1,.23-1.27.68-.73,1.65.68,1.23.13,3.25,2.35,3.47.13,0,.39.5.32.64-1.13,2.41,1.91,3.48,1.78,5.61,0,.73.75.72,1.37.44s1.32-.54,2-.81c0,1.84-1.35,3.4-1.08,5.29,0,.18-.09.36-.14.54-2,1.15-1.93,3.37-2.58,5.17-1.2,3.32-2.15,6.73-3.2,10.1a1.48,1.48,0,0,0-1.34.64.94.94,0,0,1-1.52.15c-1.29-1.24-1.85-.36-2.11.79s-1,1.45-1.84,1c-1.88-1.07-2.43.19-3,1.5-.31.71-.51,1.47-.8,2.19-.15.35-.55.87-.84.45-.94-1.38-1.77-.24-2.14.25a3.39,3.39,0,0,1-3.74,1.31c-1.24-.21-2.19.27-1.44,1.77.54,1.09.07,1.59-.86,1.91a3.76,3.76,0,0,0-1.8,1.11,5,5,0,0,1-3.49,1.9,1.67,1.67,0,0,0-1.62,2,1.6,1.6,0,0,1-1.35,2,5.58,5.58,0,0,0-2.15,1.26c-1.27,1.18-3.19,1.51-3.64,3.83a4.16,4.16,0,0,1-3.58,2.73,10.49,10.49,0,0,0-3.31.55c-1.33.47-2.05.93-.65,2.22a1.48,1.48,0,0,1,.15,2.25c-1.1,1.26-3.08,1.75-3.31,3.78,0,.07-.21.17-.31.16-2.63-.25-2.1,1.73-2.14,3.16a2.58,2.58,0,0,1-1.5,2.68,1.46,1.46,0,0,0-.76.57c-1,2.44-2.74,4.53-3.3,7.22a12.15,12.15,0,0,1-1.91,5c-1,1.36-1.86,2.84-1.34,4.68a1.18,1.18,0,0,1-.5,1.19c-3.1,3-3.8,7.12-5.23,10.92-.94,2.49-1.53,5.22-3.86,6.95a7.64,7.64,0,0,1,.36-2.46c.83-3,1.6-5.91,2.39-8.86a4.49,4.49,0,0,0,2-2.63c1.12-2.64,1.22-5.54,2.32-8.15a12.4,12.4,0,0,0,1.09-5.25l0-.77c1.28-.84,1-2.35,1.53-3.53l0-1.54a7,7,0,0,0,1.55-4.7c0-.13,0-.25,0-.38.83-.14.86-.9,1.06-1.48.64-1.76,1.63-3.39,2.28-5.1,1.11-2.92,2.83-5.62,3.31-8.79s1.15-6.11,1.35-9.22c.05-.68.83-1.38.18-2s-1.21.52-1.92.42a1.5,1.5,0,0,1,.47-1.42c1.53-1.08,1.84-2.89,2.72-4.36,1.42-2.39,1.94-5.17,3.44-7.51a31.92,31.92,0,0,0,2.31-3.53c2.48-5,5.91-9.44,8.93-14.12,3.29-5.1,7.34-9.74,9.43-15.57a61.94,61.94,0,0,0,3.79-8.29,62.55,62.55,0,0,0,4.71-17.9c.13-1,.27-2,.41-3.06A4.37,4.37,0,0,0,316.9,107.54Z" transform="translate(-58.98 -17.3)"/>
    <path class="afa666e7-728a-4a05-852e-6cc08654d44f" d="M333.88,156.61c-.27-1.89,1.12-3.45,1.08-5.29l2.88-9.6.66-.17A116.36,116.36,0,0,1,333.88,156.61Z" transform="translate(-58.98 -17.3)"/>
    <path class="bd484e79-193b-451f-b375-8388dd24703d" d="M92.42,63.83c-2-3.31-2.29-7.12-3-10.8a9.66,9.66,0,0,1,.2-2.49v0a1,1,0,0,0,.39-1,19,19,0,0,1,6.67-9c0,.85,0,1.69,0,2.54,0,2.08.73,2.52,2.68,1.67A33.82,33.82,0,0,0,106.71,40c1.68-1.33,3.72-2.08,5.57-3.14A68.73,68.73,0,0,1,132.06,29a54,54,0,0,1,19.3-1c1.58.24,3.21.16,4.81.25a8.07,8.07,0,0,1,1.91.26c.51.17,1.28.3,1.26,1s-.72.65-1.14.93c-4.73,3-9.87,5.35-14.36,8.86-2.86,2.23-5.72,4.64-9.13,6.13a10.3,10.3,0,0,1-3.94-.9,2.55,2.55,0,0,0-1.7-.1,15.56,15.56,0,0,1-5.61-.05,5.31,5.31,0,0,0-1.94-.11c-3.06.53-6.13,1-9.15,1.74a18.78,18.78,0,0,0-9.82,6.38c-2.1,2.43-2.44,5.74-2.1,8.85.25,2.23-.2,4.52.71,6.74.45,1.08-1.72,1.8-3.37,1.23S95.7,67,94.36,66.18C93.62,65.47,93.49,64.26,92.42,63.83Z" transform="translate(-58.98 -17.3)"/>
    <path class="ad498994-d079-4061-a63e-4f9345d0d323" d="M90.05,49.46a1,1,0,0,1-.39,1A1.33,1.33,0,0,1,90.05,49.46Z" transform="translate(-58.98 -17.3)"/>
    <path class="a661e817-ec69-47f5-9429-0c1c6dc51555" d="M242.39,345.59c.38,1.69-.36,2.88-2.1,3.49-.12,0-.31.1-.34.19-.78,2.49-3.34,2.94-5.09,3.19-2.89.42-5.07,2.16-7.62,2.85-1.49.41-3.41,1.07-5.23.4-.7-.26-1.4-.38-1.44-1.29a2.43,2.43,0,0,1,.7-2.29A110.13,110.13,0,0,0,236.1,336c.63-.82,1.15-1.73,1.74-2.58.25-.36.47-.83,1-.71a1.19,1.19,0,0,1,1.05,1c0,3.61,2,6.7,2.44,10.16A13.69,13.69,0,0,1,242.39,345.59Z" transform="translate(-58.98 -17.3)"/>
    <path class="bb4036ef-2bce-4478-a899-4b09128e776e" d="M222.11,260.33c4.24-.06,8.28-1.31,12.41-2.05.9.54,1.5.41,1.64-.73,1-.42,2-1.17,3.13-1.21-.43,1.46-.56,3.2-2.15,3.88a7.29,7.29,0,0,0-3.39,3.24c-.79,1.25-1.61,2.77-3.77,2a3.52,3.52,0,0,0-3.38.35,1.72,1.72,0,0,1-1.93.29c-1.44-.53-1.85.25-1.69,1.75.4-.2.67-.35,1-.46s.65-.51,1-.13c-.9,1.47-1.77,1.63-3,.6-1.61-1.33-3.72-.27-5.45-1.09-.6,1.73-3.11.29-3.65,2.17a.62.62,0,0,1-.51,0c-1-.82-1.83-.17-2.69.24-.41.2-.88.5-1.26.09-1.47-1.56-2.46-.22-3.39.64-.57.52-1,1.1-1.77.55-1.52-1-3-.67-4.61-.12-2.16.73-4.5,1.63-6.39-.78-.44-.56-1.07-.32-1.48.23a3.47,3.47,0,0,1-2.27,1.39,1.21,1.21,0,0,0-1.06.75c-.22.65-.19,1.61-1.2,1.45a1.82,1.82,0,0,1-1.66-1.65c-.05-.48-.45-1.15-.78-.51-.9,1.74-1.87.73-2.85.28a1.41,1.41,0,0,0-1.78.22,5,5,0,0,1-2.62,1.22c-1.71.3-2.31,1.14-2.14,2.81.09.89-.12,1.47-1.17.58a2.32,2.32,0,0,0-3.6.27,16.53,16.53,0,0,0-2.69,4.47c-1.59,4.18-.76,8.59-1.51,12.84a6.93,6.93,0,0,1-2.57-.66c-1.67-.68-3.24-1.88-5.22-1.44a.57.57,0,0,0-.26,0l.13-1.48c1.19-.14,2,.85,3.09,1.05s1.7.12,1.72-1.13c.07-4.36,1.23-8.52,2.41-12.68a34.44,34.44,0,0,0,1.36-4c.65-4.47,1-9,1.67-13.45.42-3,1.09-6,1.65-9,2.4.52,4.4,1.94,6.48,3.1a52.74,52.74,0,0,0,10.66,4.13c10,2.93,20.22,2.69,30.45,2.59.15.75-.4,1.78.7,2.15C218.35,263.38,221.73,261.09,222.11,260.33Z" transform="translate(-58.98 -17.3)"/>
    <path class="afa666e7-728a-4a05-852e-6cc08654d44f" d="M157.66,291.88c2-.44,3.55.76,5.22,1.44a6.93,6.93,0,0,0,2.57.66,2.94,2.94,0,0,0,2.33,1.13,7.85,7.85,0,0,0,2.83,1.22,91.29,91.29,0,0,0,18.9,4.29,65.86,65.86,0,0,0,14.31.12,63.67,63.67,0,0,0,14.87-3.44c1.83-.61,3.76-1,5.36-2.2.47.47.94.25,1.44,0a73.39,73.39,0,0,0,11.09-5.86,7.18,7.18,0,0,0,3-3.48c.19-.45.37-.83.91-.89a17.62,17.62,0,0,1-1.95,8.44c-1.42,2.57-4.12,4.06-6.56,5.68-5.07,3.37-10.89,5-16.52,7A105.92,105.92,0,0,1,199.08,308c-7.43.05-14.73-.6-21.82-3a103.13,103.13,0,0,1-11-4.76c-2.91-2-6.26-3.55-8.1-6.85Z" transform="translate(-58.98 -17.3)"/>
    <path class="b4c6b15f-2c94-4056-b7bb-c4f45f8a737d" d="M169.43,251.2c-.56,3-1.23,6-1.65,9-.64,4.47-1,9-1.67,13.45a34.44,34.44,0,0,1-1.36,4c-1.18,4.16-2.34,8.32-2.41,12.68,0,1.25-.75,1.3-1.72,1.13s-1.9-1.19-3.09-1.05a7.76,7.76,0,0,1-.15-3.52c1,0,1.33-.7,1.42-1.53a2.82,2.82,0,0,1,.71-2c1.49-1.22,1.69-2.93,2.12-4.63.36-1.41.8-2.81,1.19-4.21,1-3.41,1-7,2.22-10.35,1.13-3,1.16-6.42,2.75-9.34.5-.92.33-1.63-.76-2,0-.51,0-1,0-1.53.65-.12.75-.58.72-1.13Z" transform="translate(-58.98 -17.3)"/>
    <path class="bd484e79-193b-451f-b375-8388dd24703d" d="M167,252.88c1.09.33,1.26,1,.76,2-1.59,2.92-1.62,6.31-2.75,9.34-1.26,3.36-1.26,6.94-2.22,10.35-.39,1.4-.83,2.8-1.19,4.21-.43,1.7-.63,3.41-2.12,4.63a2.82,2.82,0,0,0-.71,2c-.09.83-.4,1.53-1.42,1.53,0-1.39,0-2.77-.07-4.16a.68.68,0,0,0,.19-.88q.92-6.25,1.84-12.52a6,6,0,0,1,.72-2.37,1.5,1.5,0,0,1,.13,1.64c-.16.47-.2,1,.31,1.19s.77-.34.95-.71a44.83,44.83,0,0,0,4.4-12.09A15.15,15.15,0,0,1,167,252.88Z" transform="translate(-58.98 -17.3)"/>
    <path class="a661e817-ec69-47f5-9429-0c1c6dc51555" d="M125.24,266.56l1.27.39a21.49,21.49,0,0,1-1,5.46c-.65-.31-1.22-.67-1.12-1.53C125.41,269.57,124.28,267.87,125.24,266.56Z" transform="translate(-58.98 -17.3)"/>
    <path class="bd484e79-193b-451f-b375-8388dd24703d" d="M157.5,281.84a.68.68,0,0,1-.19.88Z" transform="translate(-58.98 -17.3)"/>
    <path class="a6af5ee5-0b20-489d-8e68-af6cc92206a7" d="M319.71,197c-.6,3-1.24,6-3.2,8.64-1.07,1.42-1.12,3.29-1.41,5a59.17,59.17,0,0,1-4,13.52c-1.42,3.3-1.89,6.84-3.07,10.19-.47,1.33-.79,2.71-1.18,4.06a16.68,16.68,0,0,0-4.25,5.54c-2,4.24-2.77,9.05-5.64,12.89-1.74,2.33-3.69,4.5-5.4,6.85-3,4.23-5.51,8.91-9.75,12.22a10,10,0,0,0-2.28,3.12,20.41,20.41,0,0,1-4.69,5.67,27,27,0,0,0-5.74,7,3.13,3.13,0,0,1-2.07,1.88c-.94.2-1.32,1-1.72,1.73-.9,1.77-1.73,3.49-3.62,4.62-1.66,1-2.35,3-3.55,4.53-3,3.8-5.74,7.8-8.59,11.72a2.24,2.24,0,0,1-1.88.84,3.46,3.46,0,0,1,.24-3.08c.54-.74-.73-1.07-.51-2a32.69,32.69,0,0,0,.52-4.76,2.77,2.77,0,0,0,2.92-1.83,61,61,0,0,0,2.75-6.76,56.59,56.59,0,0,0,2.06-11.75l0-1.15s.12-.08.12-.11a2.33,2.33,0,0,0-.11-.28v-1.17c2.43-1,2-3.54,2.69-5.43,1.35-3.69,1.94-7.68,4.33-11,.75-1,1.82-1.88,1.66-3.38,0-.4.32-.66.71-.84,2.1-1,3.26-2.83,4.26-4.8.21-.4.28-1,.77-1,2.18-.22,2.28-3.16,4.46-3.33.27-2.33,2.69-2.88,3.73-4.48,2.44-3.74,7.26-5,9.27-9.1a1.14,1.14,0,0,1,.66-.38A1.44,1.44,0,0,0,289.3,239a3.62,3.62,0,0,1,2.08-2.88,6.36,6.36,0,0,0,2.89-3.29c1.38-3.13,4.35-4.9,6.44-7.42a2.06,2.06,0,0,1,1-.52,1.87,1.87,0,0,0,1.39-1.24c1.42-4.3,4.74-7.41,7.08-11.13,3-4.72,6.6-9,8.44-14.41A1.39,1.39,0,0,1,319.71,197Z" transform="translate(-58.98 -17.3)"/>
    <path class="ad498994-d079-4061-a63e-4f9345d0d323" d="M167.78,295.11a2.94,2.94,0,0,1-2.33-1.13c.75-4.25-.08-8.66,1.51-12.84a16.53,16.53,0,0,1,2.69-4.47,2.32,2.32,0,0,1,3.6-.27c1.05.89,1.26.31,1.17-.58-.17-1.67.43-2.51,2.14-2.81a5,5,0,0,0,2.62-1.22,1.41,1.41,0,0,1,1.78-.22c1,.45,1.95,1.46,2.85-.28.33-.64.73,0,.78.51a1.82,1.82,0,0,0,1.66,1.65c1,.16,1-.8,1.2-1.45a1.21,1.21,0,0,1,1.06-.75,3.47,3.47,0,0,0,2.27-1.39c.41-.55,1-.79,1.48-.23,1.89,2.41,4.23,1.51,6.39.78,1.64-.55,3.09-.93,4.61.12.81.55,1.2,0,1.77-.55.93-.86,1.92-2.2,3.39-.64.38.41.85.11,1.26-.09.86-.41,1.7-1.06,2.69-.24a.62.62,0,0,0,.51,0c.54-1.88,3.05-.44,3.65-2.17,1.73.82,3.84-.24,5.45,1.09,1.23,1,2.1.87,3-.6-.4-.38-.71,0-1,.13s-.55.26-1,.46c-.16-1.5.25-2.28,1.69-1.75a1.72,1.72,0,0,0,1.93-.29,3.52,3.52,0,0,1,3.38-.35c2.16.74,3-.78,3.77-2a7.29,7.29,0,0,1,3.39-3.24c1.59-.68,1.72-2.42,2.15-3.88,2.83-1.29,5.42-3.24,8.7-3.38l-.15,1.29c-.06.18-.11.37-.16.55-1.37,3.44-1.64,7.16-2.77,10.66-1.68.19-2.19,1.53-2.47,2.83-.88,3.95-1.93,7.85-2.44,11.88-.22,1.74-.47,3.75-2,4.91a27.08,27.08,0,0,1-8.46,4.56c-2.65-.05-5.35-.61-7.87.72-.41.22-.83.5-1.28.26-1.51-.78-3.06.9-4.59-.11-.16-.11-.81.21-1,.49-.85,1.26-1.62.59-2.62.17s-1.46-1.78-2.87-1.25c-1.08.41-2.26.54-3.37.9s-2.29.3-3-.9c-.26-.42-.72-.81-1.11-.39-1,1.12-2.08.62-3.21.28-.75-.23-1.75-.54-1.12,1,.39.94-.44.76-.84.6a2.59,2.59,0,0,1-1.51-1.68c-.19-.56-.61-1-1.15-.59-1.65,1.36-3.87.64-5.68,1.76-1.11.7-2.73.22-4.25-.29s-3.48-1.18-5.45-.59c-2.74.81-5.5,2.07-8.46.66-.79-.37-1.13.18-.92.9C169.68,293.17,168.84,294.17,167.78,295.11Z" transform="translate(-58.98 -17.3)"/>
    <path class="bd484e79-193b-451f-b375-8388dd24703d" d="M259.38,244.35c.75-3,1.84-5.91,2.8-8.8,1.24-3.69,2.55-7.42,3.85-11.11,2-5.67,3.65-11.47,5.45-17.21l5.67-15.29c1.35-.14,1.66.6,1.61,1.78-.17,4.21-1.85,8-3.25,11.87-.77,2.12-1.89,4.26-1.44,6.68,0,.13,0,.25,0,.38-1.42,1.27-1.62,2.94-1.55,4.7l0,1.54c-1.56.72-1.6,2.1-1.53,3.53,0,.26,0,.52,0,.77a1.75,1.75,0,0,0-1.33,1.31c-1.46,4.88-3.09,9.72-4.13,14.72-.79,2.95-1.56,5.91-2.39,8.86a7.64,7.64,0,0,0-.36,2.46c-1,2.68-1.23,5.56-2.35,8.2-.45.1-.86.23-.39.79v.77a5.58,5.58,0,0,0-1.53,4.71l0,.76a7.85,7.85,0,0,1-4.22,0c.83-4.69,2.31-9.23,3.4-13.86.13-.56.18-1.14.28-1.71a8.11,8.11,0,0,0,1-3.58A5.37,5.37,0,0,0,259.38,244.35Z" transform="translate(-58.98 -17.3)"/>
    <path class="b4c6b15f-2c94-4056-b7bb-c4f45f8a737d" d="M254.2,265.79a7.85,7.85,0,0,0,4.22,0,9.37,9.37,0,0,1-.31,2.88,93.13,93.13,0,0,0-2.41,15.49c0,.39,0,.78,0,1.17,0,.13,0,.26,0,.39,0,.39,0,.77,0,1.15-1,.16-1,.92-1.19,1.73-.4,2.15-.43,4.4-1.59,6.36-.22.37-.45.89-1,.75s-.47-.71-.48-1.15a7.91,7.91,0,0,1,.07-1,76.69,76.69,0,0,0,.7-12.58c0-.65.06-1.34-.81-1.55a71.32,71.32,0,0,1,2-10.85C253.64,267.65,253.94,266.72,254.2,265.79Z" transform="translate(-58.98 -17.3)"/>
    <path class="ad498994-d079-4061-a63e-4f9345d0d323" d="M251.37,279.44c.87.21.8.9.81,1.55a76.69,76.69,0,0,1-.7,12.58,7.91,7.91,0,0,0-.07,1c0,.44-.08,1,.48,1.15s.79-.38,1-.75c1.16-2,1.19-4.21,1.59-6.36.16-.81.18-1.57,1.19-1.73a56.59,56.59,0,0,1-2.06,11.75,61,61,0,0,1-2.75,6.76,2.77,2.77,0,0,1-2.92,1.83c.09-4.59.89-9.09,1.37-13.64C249.83,288.82,250.16,284.07,251.37,279.44Z" transform="translate(-58.98 -17.3)"/>
    <path class="a661e817-ec69-47f5-9429-0c1c6dc51555" d="M229.55,289.64a27.08,27.08,0,0,0,8.46-4.56c1.52-1.16,1.77-3.17,2-4.91.51-4,1.56-7.93,2.44-11.88.28-1.3.79-2.64,2.47-2.83l-4.41,19.46c-.54.06-.72.44-.91.89a7.18,7.18,0,0,1-3,3.48,73.39,73.39,0,0,1-11.09,5.86c-.5.2-1,.42-1.44,0,1.22-1.2,3.09-1.73,3.78-3.44A5.22,5.22,0,0,1,229.55,289.64Z" transform="translate(-58.98 -17.3)"/>
    <path class="ad04f1ab-e0b9-4b94-afe9-14441764287e" d="M247.68,254.8c0-.18.1-.37.16-.55Z" transform="translate(-58.98 -17.3)"/>
    <path class="a6af5ee5-0b20-489d-8e68-af6cc92206a7" d="M167.42,340.47c.11-3.28-.88-6.41-1.28-9.61-.7-5.58-1.66-11.14-1.82-16.77,0-1.3-.65-2.54-.34-3.86,1.92.29,3.4,1.55,5.08,2.37a55.68,55.68,0,0,0,19,5.11,98.7,98.7,0,0,0,12.63.38,62.88,62.88,0,0,0,22.58-5.15c3.07-1.27,6.23-2.33,9.35-3.48l.84.06-.06,1.94a3.08,3.08,0,0,0-2,1.71c-1.29,2.15-2.67,4.26-3.79,6.49-.77,1.57-2.24,2.65-2.76,4.35-4.52,5.06-8.78,10.38-14.79,13.87-5.8,3.36-11.71,6.16-18.62,6.51-5.4.27-10.76.68-16.06-.52C172.57,343.24,169.55,342.85,167.42,340.47Z" transform="translate(-58.98 -17.3)"/>
    <path class="a661e817-ec69-47f5-9429-0c1c6dc51555" d="M224.88,324c.52-1.7,2-2.78,2.76-4.35,1.12-2.23,2.5-4.34,3.79-6.49a3.08,3.08,0,0,1,2-1.71c0,2.73-1.61,4.63-3.16,6.63-1.22,1.58-2.75,2.91-3.71,4.7A2.21,2.21,0,0,1,224.88,324Z" transform="translate(-58.98 -17.3)"/>
    <path class="a661e817-ec69-47f5-9429-0c1c6dc51555" d="M233.47,309.52l-.84-.06c.22-.29.44-.67.85-.52S233.65,309.33,233.47,309.52Z" transform="translate(-58.98 -17.3)"/>
    <path class="ad498994-d079-4061-a63e-4f9345d0d323" d="M255.7,284.14a93.13,93.13,0,0,1,2.41-15.49,9.37,9.37,0,0,0,.31-2.88l0-.76c1.55-1.23,1.41-3,1.53-4.71v-.77l.39-.79c1.12-2.64,1.37-5.52,2.35-8.2,2.33-1.73,2.92-4.46,3.86-6.95,1.43-3.8,2.13-7.92,5.23-10.92a1.18,1.18,0,0,0,.5-1.19c-.52-1.84.3-3.32,1.34-4.68a12.15,12.15,0,0,0,1.91-5c.56-2.69,2.29-4.78,3.3-7.22a1.46,1.46,0,0,1,.76-.57,2.58,2.58,0,0,0,1.5-2.68c0-1.43-.49-3.41,2.14-3.16.1,0,.3-.09.31-.16.23-2,2.21-2.52,3.31-3.78a1.48,1.48,0,0,0-.15-2.25c-1.4-1.29-.68-1.75.65-2.22a10.49,10.49,0,0,1,3.31-.55,4.16,4.16,0,0,0,3.58-2.73c.45-2.32,2.37-2.65,3.64-3.83a5.58,5.58,0,0,1,2.15-1.26,1.6,1.6,0,0,0,1.35-2,1.67,1.67,0,0,1,1.62-2,5,5,0,0,0,3.49-1.9,3.76,3.76,0,0,1,1.8-1.11c.93-.32,1.4-.82.86-1.91-.75-1.5.2-2,1.44-1.77a3.39,3.39,0,0,0,3.74-1.31c.37-.49,1.2-1.63,2.14-.25.29.42.69-.1.84-.45.29-.72.49-1.48.8-2.19.58-1.31,1.13-2.57,3-1.5.83.47,1.57.18,1.84-1s.82-2,2.11-.79a.94.94,0,0,0,1.52-.15,1.48,1.48,0,0,1,1.34-.64c-1.33,4.46-3.1,8.76-4.74,13.11a16.56,16.56,0,0,0-1.15,4.3c-.24,2.55-1.39,4.85-2.36,7.19a1.39,1.39,0,0,0-1,1c-1.84,5.38-5.47,9.69-8.44,14.41-2.34,3.72-5.66,6.83-7.08,11.13a1.87,1.87,0,0,1-1.39,1.24,2.06,2.06,0,0,0-1,.52c-2.09,2.52-5.06,4.29-6.44,7.42a6.36,6.36,0,0,1-2.89,3.29A3.62,3.62,0,0,0,289.3,239a1.44,1.44,0,0,1-1.06,1.46,1.14,1.14,0,0,0-.66.38c-2,4.12-6.83,5.36-9.27,9.1-1,1.6-3.46,2.15-3.73,4.48-2.18.17-2.28,3.11-4.46,3.33-.49,0-.56.62-.77,1-1,2-2.16,3.81-4.26,4.8-.39.18-.75.44-.71.84.16,1.5-.91,2.35-1.66,3.38-2.39,3.28-3,7.27-4.33,11C257.7,280.6,258.13,283.1,255.7,284.14Z" transform="translate(-58.98 -17.3)"/>
    <path class="bb4036ef-2bce-4478-a899-4b09128e776e" d="M125.24,266.56c-1,1.31.17,3-.8,4.32-2-4.49-2.79-9.35-4.63-13.88a3.81,3.81,0,0,1-.09-1c-.8-1.22-.81-3.54-2.28-3.55s-1.7,2.09-2,3.51l-.79,1.14a.81.81,0,0,0-.69.86c-.18.61-.74.85-1.2,1.19l-1.59-.07a23.07,23.07,0,0,1,2.81-4.63c2.16-3,2.92-6.64,3.87-10.07.51-1.82.19-4.11.45-6.11.55-4.28-1.09-7.87-3.08-11.29a19.54,19.54,0,0,0-3.27-4.27,35.15,35.15,0,0,1-5.55-7,33.17,33.17,0,0,1-4.24-9.05c-.59-2.22-2.3-3.72-3.7-5.38-1.17-1.38-2.73-2.45-3.78-3.91-1.41-2-3-4-3.59-6.3a7,7,0,0,0-3-4.26c-.11-.53-1.07-.84-.39-1.57,3.83.63,6.21,3,8.23,6.21,3.19,5,6.31,10.12,10.29,14.62a20.35,20.35,0,0,0,2.18,1.89,2.65,2.65,0,0,0,.61,1.6c2.64,4.07,5.31,8.13,7.88,12.24a47.34,47.34,0,0,1,5.37,13.48c.57,2.22,1.26,3.07,3.22,3.39a16.25,16.25,0,0,1,1.69.47c.86,4.27,0,8.52-.12,12.77A99.67,99.67,0,0,1,125.24,266.56Z" transform="translate(-58.98 -17.3)"/>
    <path class="bb4036ef-2bce-4478-a899-4b09128e776e" d="M109.6,259.48c0,.17,0,.33,0,.49.11,1.27-1.13,1.73-1.59,2.66h0a1.41,1.41,0,0,0-.8,1.15c-1.07.42-1.19,1.66-2,2.29-.6.46-1,1.27-1.9,1.19a32.38,32.38,0,0,1,3.56-5.79C107.92,261,108.36,259.7,109.6,259.48Z" transform="translate(-58.98 -17.3)"/>
    <path class="a661e817-ec69-47f5-9429-0c1c6dc51555" d="M115.43,256c.31-1.42.67-3.51,2-3.51s1.48,2.33,2.28,3.55c-.44-.1-1-.07-1.29-.33C117.27,254.58,116.36,255.22,115.43,256Z" transform="translate(-58.98 -17.3)"/>
    <path class="a661e817-ec69-47f5-9429-0c1c6dc51555" d="M108,262.63c.46-.93,1.7-1.39,1.59-2.66l1.54-.86,1.59.07C111.53,260.82,110.24,262.35,108,262.63Z" transform="translate(-58.98 -17.3)"/>
    <path class="a661e817-ec69-47f5-9429-0c1c6dc51555" d="M107.22,263.79a1.41,1.41,0,0,1,.8-1.15C108.54,263.57,108.16,263.88,107.22,263.79Z" transform="translate(-58.98 -17.3)"/>
    <path class="a661e817-ec69-47f5-9429-0c1c6dc51555" d="M124.42,273.38l.2.22a1.58,1.58,0,0,1-.24.15s-.12-.08-.12-.1A2.71,2.71,0,0,1,124.42,273.38Z" transform="translate(-58.98 -17.3)"/>
    <path class="a661e817-ec69-47f5-9429-0c1c6dc51555" d="M114,258a.81.81,0,0,1,.69-.86A.78.78,0,0,1,114,258Z" transform="translate(-58.98 -17.3)"/>
    <path class="bd484e79-193b-451f-b375-8388dd24703d" d="M109.6,259.48c-1.24.22-1.68,1.53-2.74,2-.11-1.31.89-2.18,1.48-3.08A37.26,37.26,0,0,0,114,244c.43-2.5.82-5.35,0-7.63a17.64,17.64,0,0,0-4-6.91c0-.36,0-.73-.07-1.09,1.92,0,3.78,1.76,4.67,3.91,2.33,5.67,1.62,11.26.07,16.93a34.48,34.48,0,0,1-4.64,9.28A9.79,9.79,0,0,0,109.6,259.48Z" transform="translate(-58.98 -17.3)"/>
    <path class="afa666e7-728a-4a05-852e-6cc08654d44f" d="M261.86,187a134.09,134.09,0,0,1-26.57,10.82A58.59,58.59,0,0,1,217,200.36a124.33,124.33,0,0,1-15.91-.7c-1.22-.16-2.42-.44-3.63-.67a2.36,2.36,0,0,1,1.11-3.12,14.37,14.37,0,0,1,5.6-2.05c6.44-1.17,12.85-2.42,19.21-4A27.83,27.83,0,0,0,230.3,188c7.36-1.69,14.53-3.88,21.13-7.67,4.6-2.63,9.36-5,13.84-7.78a9.3,9.3,0,0,0,3.87-3.82c2.41-1.62,5.18-2.65,7.45-4.5.47-.39,1-1.11,1.66-.64s.18,1.19-.06,1.78c-2.05,1.38-3.11,3.53-4.43,5.49a68.79,68.79,0,0,1-7.43,9.88c-.28.29-.52.64-.28,1.05s.64.36,1,.28c.72-.14,1.54-.7,1.9.5C267,184.61,264.26,185.57,261.86,187Z" transform="translate(-58.98 -17.3)"/>
    <path class="afa666e7-728a-4a05-852e-6cc08654d44f" d="M265.42,154.15c2.24-3,3.53-6.45,5-9.86,4-9.37,5.71-19.25,6.41-29.3a100.5,100.5,0,0,0-1.07-21.56,7.78,7.78,0,0,0-.61-1.62,61.55,61.55,0,0,0-3.05-12l-1.22-3.48c1.29.09,1.82,1.08,2.29,2.06a3.61,3.61,0,0,0,2.46,2.2,79.44,79.44,0,0,1,3.54,15.23c.46,6.63,2.19,13.18,1.25,19.9a122,122,0,0,1-5.23,27.2c1-.77,2.2-1.11,2.81-2.17,2.2.09,3.93-1.31,5.76-2.12,4.43-1.94,7.57-5.52,10-9.63,3.17-5.26,4.85-11.25,7.94-16.54.65-1.12.28-2.84,1.95-3.35a68.35,68.35,0,0,1-7.52,19.07,77.29,77.29,0,0,1-8.87,12.94A76.2,76.2,0,0,1,270,156.31c-3.25,2-6.55,4.05-10.42,5C262.24,159.43,263.25,156.33,265.42,154.15Z" transform="translate(-58.98 -17.3)"/>
    <path class="afa666e7-728a-4a05-852e-6cc08654d44f" d="M223.41,189.85c-6.36,1.55-12.77,2.8-19.21,4a14.37,14.37,0,0,0-5.6,2.05,2.36,2.36,0,0,0-1.11,3.12c-1.49,1-2.44-.15-3.38-1s-.31-1.75.09-2.64c1.52-3.47,4.76-4.78,7.93-5.69,7-2,14-3.53,20.9-5.78,1.34-.43,2.76-.65,4.15-1-.14.69-.28,1.37-.43,2.06a2.43,2.43,0,0,1-1.91,2.16C223,187.45,222.77,188.36,223.41,189.85Z" transform="translate(-58.98 -17.3)"/>
    <path class="afa666e7-728a-4a05-852e-6cc08654d44f" d="M223.41,189.85c-.64-1.49-.4-2.4,1.43-2.67a2.43,2.43,0,0,0,1.91-2.16c.15-.69.29-1.37.43-2.06,9.68-2.53,18.44-7.74,28.31-9.73.9-.17,1.59-.95,2.58-.77.2,1.77-.69,2.74-2.25,3.42-1.89.82-3.72,1.79-5.56,2.73-4.19,2.15-8,5-12.7,6.22-1.36.37-2.69.89-4.05,1.28s-2.57.55-3.21,1.91A27.83,27.83,0,0,1,223.41,189.85Z" transform="translate(-58.98 -17.3)"/>
    <path class="afa666e7-728a-4a05-852e-6cc08654d44f" d="M230.3,188c.64-1.36,2-1.57,3.21-1.91s2.69-.91,4.05-1.28c4.65-1.26,8.51-4.07,12.7-6.22,1.84-.94,3.67-1.91,5.56-2.73,1.56-.68,2.45-1.65,2.25-3.42a81.34,81.34,0,0,0,10.15-3.66,2.53,2.53,0,0,1,.92-.05,9.3,9.3,0,0,1-3.87,3.82c-4.48,2.8-9.24,5.15-13.84,7.78C244.83,184.14,237.66,186.33,230.3,188Z" transform="translate(-58.98 -17.3)"/>
    <path class="b4c6b15f-2c94-4056-b7bb-c4f45f8a737d" d="M274.07,212.27c-.45-2.42.67-4.56,1.44-6.68,1.4-3.88,3.08-7.66,3.25-11.87.05-1.18-.26-1.92-1.61-1.78a7.62,7.62,0,0,1,1.46-3.63l1.72-2.21c.71.1,1.22-1.1,1.92-.42s-.13,1.32-.18,2c-.2,3.11-.89,6.14-1.35,9.22s-2.2,5.87-3.31,8.79c-.65,1.71-1.64,3.34-2.28,5.1C274.93,211.37,274.9,212.13,274.07,212.27Z" transform="translate(-58.98 -17.3)"/>
    <path class="a661e817-ec69-47f5-9429-0c1c6dc51555" d="M269,182.59c-.36-1.2-1.18-.64-1.9-.5-.39.08-.8.13-1-.28s0-.76.28-1.05a68.79,68.79,0,0,0,7.43-9.88c1.32-2,2.38-4.11,4.43-5.49C276.74,172,274.18,178,269,182.59Z" transform="translate(-58.98 -17.3)"/>
    <path class="a661e817-ec69-47f5-9429-0c1c6dc51555" d="M280.33,186.1l-1.72,2.21c-.06-.18-.23-.4-.17-.53A175.72,175.72,0,0,0,288,161.65a.57.57,0,0,1,.11-.16h1.58c-.37,2.18-.42,4.38-1.38,6.5-.66,1.48-1.65,3-1.36,4.81-1.5,2.34-2,5.12-3.44,7.51-.88,1.47-1.19,3.28-2.72,4.36A1.5,1.5,0,0,0,280.33,186.1Z" transform="translate(-58.98 -17.3)"/>
    <path class="ad498994-d079-4061-a63e-4f9345d0d323" d="M219.76,116.92,219,117c-1.93.39-3.5,1.75-5.38,2.18A64.67,64.67,0,0,0,202,123.57c-6.1,2.69-12,5.77-18,8.84s-11.7,6.15-17.26,9.72c-1.55,1-3.34,1.73-4.49,3.29l-.75.41c-.56,0-1,.12-1.19.78-.95,0-1.34,1.18-2.3,1.21-.44-.81-1.39-1.33-1-2.57.34-1-.58-1-1.22-.88-1.08.19-2.14.54-3.22.73-1.54.28-3.06,1.07-4.68.14a2.49,2.49,0,0,0-1.7,0c-2,.55-3.94,1-5.9-.39-.39-.27-1.56.42-2.26.84a8,8,0,0,1-6,.72c-.89-.19-1.94.68-2.57-.23a7,7,0,0,1-1.09-3.89c-.14-5.5-2.58-10.28-4.74-15.13-.71-1.61-2.63-2.5-2.8-4.55-.07-.86-.32-1.64.34-2.37a1,1,0,0,0,.31-.7c-.33-3.12,2.15-5.24,2.81-7.91.72-2.93,2.55-2.5,4.51-2.51a40.88,40.88,0,0,0,17.72-4.56,51.76,51.76,0,0,1,6-2.1h5.86c.06,1.59,1.3,2.64,2,3.91s2.14.5,3.21.21c.82-.22.62-.94.29-1.6-.49-1,.23-1,.84-.81a1.8,1.8,0,0,1,1.17,1.23c.59,1.68,1.49,1.68,2.79.72,1-.74,2.41.15,3.48-.69.19-.15.48.31.62.62a2,2,0,0,0,3.28.91,1.28,1.28,0,0,1,1.57-.14,1.67,1.67,0,0,0,1.85.07c1-.8,2-.37,2.93,0a3.57,3.57,0,0,0,3.25,0c.79-.35,1.7-.3,2.4-1.15.31-.37.81.18.68.74s-.11,1.24.66,1.34c2.77.34.38,1.15.13,1.73,2.19,1.3,3.17,1,3.8-1.22.28-1,.68-.57,1.24-.15.92.69,1.85,1,1.89-.73,0-.44.06-.8.49-1,.6-.21.78.2.93.68.19.65.55.56,1,.24s.65-1.46,1.45-.74a1.63,1.63,0,0,1,.29,2.13c-.65,1.07.25,1.24.93,1.36a2.66,2.66,0,0,0,2.09-.86c1.84-1.49,3.1-1.45,4.93.14,1.15,1,4,1,5,0,.33-.31.72-.66.47-1.17s-.75-.32-1.2-.29c-.94.07-1.6,1.12-2.63.86-.15-.6.28-.73.52-1,.82-1,2.57-.64,3-1.28,1-1.71,2.46-1.44,3.9-1.41a3,3,0,0,0,3.25-2.44c.13-.5.05-1.12.68-1.27s.92.39,1.2.82.72,1.09,1.38.75,1.62-.61,1.76-1.64c.06-.42-.54-1.15.39-1.18.64,0,.93.57,1.2,1.12.73,1.47,4.26,2.35,5.33,1.15.86-1,2-.73,3-1.33,1.57-1,1.9.57,2.57,1.41a.78.78,0,0,0,.52.22c1.29.14,1.65,1.08,2,2.13a2.66,2.66,0,0,0,1.12,1.76l-.33.42a1.57,1.57,0,0,0-1.57.78h0a2.54,2.54,0,0,0-1.54.76c-.79-.06-1.24.68-1.94.83-2.6,1.15-5.27,2.18-7.8,3.47C225.84,114.5,222.52,115.07,219.76,116.92Z" transform="translate(-58.98 -17.3)"/>
    <path class="afa666e7-728a-4a05-852e-6cc08654d44f" d="M126,140.61c-1-1.13-1.09-2.63-1.33-4a22.69,22.69,0,0,0-6.57-11.86c-1.56-1.59-3.72-1.74-5.94-.61-4.45,2.26-6.25,6.31-7.26,10.87a.92.92,0,0,0,.3,1A.68.68,0,0,0,106,136a9.25,9.25,0,0,1,9.48-2.23c3.46,1,5.82,3.25,8,5.81a27.09,27.09,0,0,0,1.83,2c.59.56.51-.15.64-.42.52.59.33,1.34.43,2a4.3,4.3,0,0,1-4.17-1.92,10.65,10.65,0,0,0-2.17-2.23c-2.45-2.06-5.06-3.55-8.41-2.16a4.21,4.21,0,0,1-1.51.35c-1.86,0-3.59.23-4.82,1.93-.41.56-1.29.52-2,.47-1.25-5.25.29-10.06,3.24-14.17s9.26-4.69,13.4-.15C123.89,129.55,125.47,134.92,126,140.61Z" transform="translate(-58.98 -17.3)"/>
    <path class="a661e817-ec69-47f5-9429-0c1c6dc51555" d="M158.43,102.48h-5.86l-.81-2.29c4.36.83,8.63.1,12.92-.61a49.21,49.21,0,0,0,9.15-2.41c3.52-1.32,7.4-2.42,10.12-5.49,1.43-1.61,2.24-1.49,3.41,0-.11.7-.68,1.08-1.12,1.55A25.47,25.47,0,0,1,175,100,57.6,57.6,0,0,1,158.43,102.48Z" transform="translate(-58.98 -17.3)"/>
    <path class="a661e817-ec69-47f5-9429-0c1c6dc51555" d="M103.36,139.6c.73.05,1.61.09,2-.47,1.23-1.7,3-1.9,4.82-1.93a4.21,4.21,0,0,0,1.51-.35c3.35-1.39,6,.1,8.41,2.16a10.65,10.65,0,0,1,2.17,2.23,4.3,4.3,0,0,0,4.17,1.92c.2.3.69.5.51,1s-.58.37-1,.37c-2.35,0-4.39-1-6.45-1.89a13.66,13.66,0,0,0-13.19.4c-1,.55-1.66.63-2-.66C104,141.42,103.29,140.65,103.36,139.6Z" transform="translate(-58.98 -17.3)"/>
    <path class="a661e817-ec69-47f5-9429-0c1c6dc51555" d="M105.7,103.28a9.2,9.2,0,0,1,4.44.58c1.85.61,3.49,1.85,5.71,1.62,1.52-.15,3.11.71,4.7.89,2.2.25,4.42.28,6.63.4-1.76,1.26-3.66,2.1-5.88,1.54-3.62-.89-7.41-1-10.93-2.37A14.17,14.17,0,0,1,105.7,103.28Z" transform="translate(-58.98 -17.3)"/>
    <path class="ad498994-d079-4061-a63e-4f9345d0d323" d="M249.05,144.65c-2.21,1.79-4.35,3.67-6.64,5.35A57.6,57.6,0,0,1,231,156.53a123.74,123.74,0,0,1-13.13,4.84,157.58,157.58,0,0,1-15.92,3.68c-9.81,1.85-19.85,2.55-29.41,5.64-4.56,1.48-9.36,2.52-13.35,5.33a44.34,44.34,0,0,1-10.88,5.55c-4.92,1.74-9.88,2.11-14.87.22.16-.86.94-.9,1.5-.92,2.33-.07,4.22-1.27,6.22-2.21.67-.32,1.31-.56,1.28-1.45a.18.18,0,0,1,.23-.14l.54-.33a4.54,4.54,0,0,1,2.27-.66c.11,1,.71,1.31,1.67,1.44,1.67.22,3.1-.59,4.65-.81a13.8,13.8,0,0,0,8.59-4.35,6.65,6.65,0,0,1,3.23-2,9,9,0,0,0,4-1.89,2.79,2.79,0,0,1,1.73-.78c2.46-.18,4.65-1.39,6.91-2.19s4.74-1,6.66-2.58c.31-.26.74-.06,1.13,0,2,.07,4.36.14,5.81-.65,2.12-1.15,5.2-.42,6.51-3.19.24-.5,1.09-.38,1.65-.19,1,.34,1.6.17,1.86-1s.8-1.39,1.73-.43c1.24,1.28,2.64,1.44,4.42.89a29.25,29.25,0,0,1,6.12-1.35,20.55,20.55,0,0,0,5.48-1.5c2.43-.95,4.5-2.89,7.22-3.32,1.63-.26,3.15-.41,4.34-1.89a3.45,3.45,0,0,1,2.31-1.29c3-.14,5.65-1,7.62-3.48A11.57,11.57,0,0,1,241.3,144c3.73-2.86,7.68-5.48,9.79-9.94a6.21,6.21,0,0,1,1.09-1.6,9.53,9.53,0,0,0,2.41-5.15c.45-2.54,1-5.5,2.92-7,4.23-3.32,4.76-8.65,7.71-12.6a1.13,1.13,0,0,0,.14-.36c.69-2.7,1.4-5.4,2-8.11.16-.71.38-1.23,1.14-1.37l0,1.52c-.79,2.58-.15,5.25-.48,7.86a2.33,2.33,0,0,0-1.73,1.91c-1,4.38-2.26,8.69-3.62,13a53.71,53.71,0,0,1-6.35,13.63A70.37,70.37,0,0,1,249.05,144.65ZM202.41,160c-.3,0-.42.16-.36.37a.34.34,0,0,0,.28.18,1.89,1.89,0,0,0,.38-.27Z" transform="translate(-58.98 -17.3)"/>
    <path class="a661e817-ec69-47f5-9429-0c1c6dc51555" d="M249.05,144.65a70.37,70.37,0,0,0,7.34-9,53.71,53.71,0,0,0,6.35-13.63,11.16,11.16,0,0,0,3.64-5.25,30.58,30.58,0,0,0,1.71-9.64c.33-2.61-.31-5.28.48-7.86,0,.83,0,1.66.12,2.47.17,1.27-.49,2.67.56,3.81a102.86,102.86,0,0,1-5.63,29.77c-.36.12-.88.14-1.05.39-1.46,2.17-4,3.12-5.66,4.93s-4,2.76-6.09,4.08A1.25,1.25,0,0,1,249.05,144.65Z" transform="translate(-58.98 -17.3)"/>
    <path class="a6af5ee5-0b20-489d-8e68-af6cc92206a7" d="M142.43,177.21c0,.89-.61,1.13-1.28,1.45-2,.94-3.89,2.14-6.22,2.21-.56,0-1.34.06-1.5.92-1.07-.13-2.18-.2-2.8-1.32,3.17-.8,6.41-1.31,9.44-2.59Z" transform="translate(-58.98 -17.3)"/>
    <path class="bb4036ef-2bce-4478-a899-4b09128e776e" d="M268.54,97.78c-.76.14-1,.66-1.14,1.37-.64,2.71-1.35,5.41-2,8.11a1.13,1.13,0,0,1-.14.36c-3,3.95-3.48,9.28-7.71,12.6-1.95,1.54-2.47,4.5-2.92,7a9.53,9.53,0,0,1-2.41,5.15,6.21,6.21,0,0,0-1.09,1.6c-2.11,4.46-6.06,7.08-9.79,9.94a11.57,11.57,0,0,0-2.19,1.58c-2,2.49-4.61,3.34-7.62,3.48a3.45,3.45,0,0,0-2.31,1.29c-1.19,1.48-2.71,1.63-4.34,1.89-2.72.43-4.79,2.37-7.22,3.32a20.55,20.55,0,0,1-5.48,1.5,29.25,29.25,0,0,0-6.12,1.35c-1.78.55-3.18.39-4.42-.89-.93-1-1.47-.69-1.73.43s-.87,1.31-1.86,1c-.56-.19-1.41-.31-1.65.19-1.31,2.77-4.39,2-6.51,3.19-1.45.79-3.83.72-5.81.65-.39,0-.82-.21-1.13,0-1.92,1.62-4.44,1.8-6.66,2.58s-4.45,2-6.91,2.19a2.79,2.79,0,0,0-1.73.78,9,9,0,0,1-4,1.89,6.65,6.65,0,0,0-3.23,2,13.8,13.8,0,0,1-8.59,4.35c.3-.67,1-.71,1.56-1,1.64-.83,3.46-1.43,4.31-3.28a2.23,2.23,0,0,0,1.43-.5c2.72-2.23,5.92-3.59,9.08-5a.76.76,0,0,0,.81-.75c3.28-.5,5.87-2.63,8.68-4.08a52.8,52.8,0,0,0,7.74-4.71c1.81-1.37,4-2.18,5.45-4.11a2.14,2.14,0,0,1,1-.88c8.7-4.52,16.74-10.13,25.23-15,4.32-2.46,8.74-4.74,12.84-7.58a5.26,5.26,0,0,0,4.3-2.72l.39-.4c.57,0,1.07-.09,1.17-.78l.4-.39c.56,0,1.06-.09,1.17-.78l6.23-4.31a20.51,20.51,0,0,0,2-1.47,32.16,32.16,0,0,0,8.66-12.68c.48-1.31,1.53-2.94-.23-4.25-.19-1.09.8-1.84.94-2.8a.71.71,0,0,0-1,.06,102.05,102.05,0,0,1-8.94,5.74c-.9.53-2.26.38-2.7,1.66l-.43,0a2.66,2.66,0,0,1-1.12-1.76c-.3-1-.66-2-2-2.13a.78.78,0,0,1-.52-.22c-.67-.84-1-2.43-2.57-1.41-.92.6-2.09.37-3,1.33-1.07,1.2-4.6.32-5.33-1.15-.27-.55-.56-1.15-1.2-1.12-.93,0-.33.76-.39,1.18-.14,1-1.05,1.28-1.76,1.64s-1-.24-1.38-.75-.58-1-1.2-.82-.55.77-.68,1.27a3,3,0,0,1-3.25,2.44c-1.44,0-2.86-.3-3.9,1.41-.39.64-2.14.32-3,1.28-.24.28-.67.41-.52,1,1,.26,1.69-.79,2.63-.86.45,0,.94-.24,1.2.29s-.14.86-.47,1.17c-1,1-3.87,1-5,0-1.83-1.59-3.09-1.63-4.93-.14a2.66,2.66,0,0,1-2.09.86c-.68-.12-1.58-.29-.93-1.36a1.63,1.63,0,0,0-.29-2.13c-.8-.72-1,.42-1.45.74s-.83.41-1-.24c-.15-.48-.33-.89-.93-.68-.43.15-.48.51-.49,1,0,1.7-1,1.42-1.89.73-.56-.42-1-.82-1.24.15-.63,2.18-1.61,2.52-3.8,1.22.25-.58,2.64-1.39-.13-1.73-.77-.1-.82-.67-.66-1.34s-.37-1.11-.68-.74c-.7.85-1.61.8-2.4,1.15a3.57,3.57,0,0,1-3.25,0c-.94-.4-1.92-.83-2.93,0a1.67,1.67,0,0,1-1.85-.07,1.28,1.28,0,0,0-1.57.14,2,2,0,0,1-3.28-.91c-.14-.31-.43-.77-.62-.62-1.07.84-2.48,0-3.48.69-1.3,1-2.2,1-2.79-.72a1.8,1.8,0,0,0-1.17-1.23c-.61-.16-1.33-.18-.84.81.33.66.53,1.38-.29,1.6-1.07.29-2.53,1.05-3.21-.21s-1.92-2.32-2-3.91A57.6,57.6,0,0,0,175,100a25.47,25.47,0,0,0,11.2-6.74c.44-.47,1-.85,1.12-1.55,1.72-.89,2.46-2.62,3.4-4.14a41.9,41.9,0,0,0,6-17.44c.62-.36.66-1,.93-1.62a12.23,12.23,0,0,1,2.83-4.26c1.08.55,2,.2,3.15-.13,2.76-.82,5-2.52,7.42-3.89a3,3,0,0,1,2.42-.46,7.09,7.09,0,0,0,5.32.06c1.05-.49,1.57.59,2.13,1a4.41,4.41,0,0,0,5,.15c1.41-.8,2.67-.43,3.92-.1s2.58,1.22,4.09,1.11a.74.74,0,0,1,.81.7c.09,2.06,1.35,1.34,2,.63,1.27-1.38,2.25-.79,3.32.08,1.42,1.15,2.57,2.85,4.83,2.12.22-.07.63.2.84.42.9,1,1.81,1.35,3,.49a1.33,1.33,0,0,1,1.9.41,3.33,3.33,0,0,0,3.07,1.34,2.73,2.73,0,0,1,2.17.68c.45.42.87.58,1.27-.07a1.43,1.43,0,0,1,.42-.34c.73,2.06,2.32.6,3.39.63,1.61,0,1.46-2.07,2.45-3a3.12,3.12,0,0,1,.49-.31,6.15,6.15,0,0,1,1.41,2.74,128.65,128.65,0,0,1,3.14,27,.46.46,0,0,0,0,.81Zm-36.92,1.76c1.7-1.9.77-3-.21-4.07a.81.81,0,0,0-1-.24c-.54.3-.34.76-.15,1.18C230.64,97.34,231.62,98,231.62,99.54Zm-55.82,4.94c.11.06.19.12.28.16s.1-.09.09-.12a1.58,1.58,0,0,0-.15-.24Z" transform="translate(-58.98 -17.3)"/>
    <path class="a661e817-ec69-47f5-9429-0c1c6dc51555" d="M162.29,145.42c1.15-1.56,2.94-2.29,4.49-3.29,5.56-3.57,11.38-6.69,17.26-9.72s11.86-6.15,18-8.84a64.67,64.67,0,0,1,11.64-4.36c1.88-.43,3.45-1.79,5.38-2.18-1.23,2.53-3.69,3.16-6.07,3.72a7.66,7.66,0,0,0-3.44,1.68c-3.5,3.21-7.9,4.57-12.18,6.13a17,17,0,0,0-3.21,1.73c-3.91,2.42-8.49,3.08-12.61,4.93-2,.91-4.22,1.56-5.68,3.44a2,2,0,0,1-.92.68,36.93,36.93,0,0,0-9.49,5.23A4.52,4.52,0,0,1,162.29,145.42Z" transform="translate(-58.98 -17.3)"/>
    <path class="b4c6b15f-2c94-4056-b7bb-c4f45f8a737d" d="M254.06,102.06c1.76,1.31.71,2.94.23,4.25A32.16,32.16,0,0,1,245.63,119a20.51,20.51,0,0,1-2,1.47,2.58,2.58,0,0,1,1.12-2.29c1.77-1.09,1.08-1.79-.34-2.41,1.78-1.84,3.55-3.69,5.34-5.52a3.52,3.52,0,0,0,1.3-2.68c.29-.73.92-1.36.68-2.25.32-.53.91-.92.9-1.64Z" transform="translate(-58.98 -17.3)"/>
    <path class="a661e817-ec69-47f5-9429-0c1c6dc51555" d="M254.06,102.06l-1.48,1.61c-.42-.16-.92-.55-1.27-.19-1.45,1.54-3.77,1.52-5.24,3.19-.82.94-2.43,1.7-3.68,0,.44-1.28,1.8-1.13,2.7-1.66A102.05,102.05,0,0,0,254,99.32a.71.71,0,0,1,1-.06C254.86,100.22,253.87,101,254.06,102.06Z" transform="translate(-58.98 -17.3)"/>
    <path class="a661e817-ec69-47f5-9429-0c1c6dc51555" d="M219.76,116.92c2.76-1.85,6.08-2.42,9-3.91,2.53-1.29,5.2-2.32,7.8-3.47.38,1.49-1.18,1.87-1.63,2.88-.58,1.31-1.63,1-2.73,1.14a28.05,28.05,0,0,0-7.4,2.22c-1.18.53-2.41.94-3.62,1.4A1.18,1.18,0,0,1,219.76,116.92Z" transform="translate(-58.98 -17.3)"/>
    <path class="bd484e79-193b-451f-b375-8388dd24703d" d="M251.68,105.31c.24.89-.39,1.52-.68,2.25-.52.48-1.09.93-1.56,1.46-.76.86-1.24,2-2.63,2.1-.13-.73.84-.73.88-1.34,1.05-1,2.24-1.86,2.56-3.38l0,0,.8-.79Z" transform="translate(-58.98 -17.3)"/>
    <path class="a661e817-ec69-47f5-9429-0c1c6dc51555" d="M238.51,108.71a2.54,2.54,0,0,1,1.54-.76,1.34,1.34,0,0,1-1,1.36C238.64,109.41,238.58,109,238.51,108.71Z" transform="translate(-58.98 -17.3)"/>
    <path class="a661e817-ec69-47f5-9429-0c1c6dc51555" d="M240.06,108a1.57,1.57,0,0,1,1.57-.78C241.45,108.12,240.71,107.94,240.06,108Z" transform="translate(-58.98 -17.3)"/>
    <path class="a661e817-ec69-47f5-9429-0c1c6dc51555" d="M160.35,146.61c.14-.66.63-.77,1.19-.78C161.46,146.58,160.94,146.65,160.35,146.61Z" transform="translate(-58.98 -17.3)"/>
    <path class="bf9e1a4a-2082-41c6-b6a2-bb25a75acab2" d="M251,105.64l-.8.79Z" transform="translate(-58.98 -17.3)"/>
    <path class="ad498994-d079-4061-a63e-4f9345d0d323" d="M232.67,240.08h-.76l-12.66,1.6c-1.53.2-3.35,1.52-4.33,1.11-2.63-1.1-4.89.6-7.42.2a88.55,88.55,0,0,0-9.81-.46c-3.25-.13-6.35-1.23-9.59-1.33a10.6,10.6,0,0,1-4.14-.94,23,23,0,0,0-7.34-1.79c-1.94-.19-2.75-.82-3.1-3-.84-5.43.75-10.11,3.32-14.68,2.45-4.37,6.57-5.4,11.08-5.5,7.82-.16,15.62.1,23.46-.81a139,139,0,0,0,19.83-3.76,159.54,159.54,0,0,0,15.85-5.34,90.42,90.42,0,0,0,14.77-6.85,6.51,6.51,0,0,1,1.29-.43,13.23,13.23,0,0,1-.49,2.46,44.42,44.42,0,0,0-2.56,7.09c-1.39,4.12-2.76,8.24-4.48,12.25A33.06,33.06,0,0,1,245,233.26a39.57,39.57,0,0,1-11.48,6.43A.72.72,0,0,0,232.67,240.08Z" transform="translate(-58.98 -17.3)"/>
    <path class="a661e817-ec69-47f5-9429-0c1c6dc51555" d="M188.1,241.2c3.24.1,6.34,1.2,9.59,1.33a88.55,88.55,0,0,1,9.81.46c2.53.4,4.79-1.3,7.42-.2,1,.41,2.8-.91,4.33-1.11l12.66-1.6c-.93,2.17-3.21,2-4.91,2.57a76.75,76.75,0,0,1-8,2c-.37.09-.76.36-1.11.32-4.12-.5-8.26-.12-12.39-.16-3.07,0-6-.7-9.06-1S190.57,243,188.1,241.2Z" transform="translate(-58.98 -17.3)"/>
    <path class="a661e817-ec69-47f5-9429-0c1c6dc51555" d="M260.07,207.62a44.42,44.42,0,0,1,2.56-7.09,13.23,13.23,0,0,0,.49-2.46c0-1.73,1.52-1.49,2.55-1.88.17,2.79-1.63,5-2.29,7.52a39.48,39.48,0,0,1-1.74,4.48C261.28,207.56,260.68,207.58,260.07,207.62Z" transform="translate(-58.98 -17.3)"/>
    <path class="afa666e7-728a-4a05-852e-6cc08654d44f" d="M250.17,200.73a1.59,1.59,0,0,1-1.5.7" transform="translate(-58.98 -17.3)"/>
    <path class="a661e817-ec69-47f5-9429-0c1c6dc51555" d="M232.67,240.08a.72.72,0,0,1,.8-.39C233.34,240.11,233.18,240.47,232.67,240.08Z" transform="translate(-58.98 -17.3)"/>
    <path class="b4c6b15f-2c94-4056-b7bb-c4f45f8a737d" d="M61.17,147c1.11-3.77,2.15-7.59,4.2-11a121.24,121.24,0,0,1,7.38-11.18c2-2.56,3.26-5.6,5.19-8.16A80.32,80.32,0,0,0,88.52,99a9.8,9.8,0,0,1,1,8.64,49.52,49.52,0,0,1-8.06,14.66,44.09,44.09,0,0,1-6,6.74c-3.54,3.06-5.18,7.6-8.32,10.92C65,142.21,63.7,145.13,61.17,147Z" transform="translate(-58.98 -17.3)"/>
    <path class="ad498994-d079-4061-a63e-4f9345d0d323" d="M127.19,239.21a16.25,16.25,0,0,0-1.69-.47c-2-.32-2.65-1.17-3.22-3.39a47.34,47.34,0,0,0-5.37-13.48c-2.57-4.11-5.24-8.17-7.88-12.24a2.65,2.65,0,0,1-.61-1.6c4.37,4,9.75,7,12.9,12.27C124.8,226.1,127.11,232.33,127.19,239.21Z" transform="translate(-58.98 -17.3)"/>
    <path class="ad498994-d079-4061-a63e-4f9345d0d323" d="M222.11,260.33c-.38.76-3.76,3.05-4.39,2.84-1.1-.37-.55-1.4-.7-2.15A11.18,11.18,0,0,1,222.11,260.33Z" transform="translate(-58.98 -17.3)"/>
    <path class="ad498994-d079-4061-a63e-4f9345d0d323" d="M236.16,257.55c-.14,1.14-.74,1.27-1.64.73A2.8,2.8,0,0,1,236.16,257.55Z" transform="translate(-58.98 -17.3)"/>
    <path class="bd484e79-193b-451f-b375-8388dd24703d" d="M167.79,250.22c0,.55-.07,1-.72,1.13,0-.54,0-1.08,0-1.62Z" transform="translate(-58.98 -17.3)"/>
    <path class="a6af5ee5-0b20-489d-8e68-af6cc92206a7" d="M317.84,98.2l-.66,0c-.08-.82-.41-1.67.33-2.38C318.05,96.59,317.75,97.42,317.84,98.2Z" transform="translate(-58.98 -17.3)"/>
    <path class="b4c6b15f-2c94-4056-b7bb-c4f45f8a737d" d="M326.45,73.57c.85.22,1,.89,1.1,1.63A1.61,1.61,0,0,1,326.45,73.57Z" transform="translate(-58.98 -17.3)"/>
    <path class="b4c6b15f-2c94-4056-b7bb-c4f45f8a737d" d="M326,72.93a.64.64,0,0,1,.44.62A.6.6,0,0,1,326,72.93Z" transform="translate(-58.98 -17.3)"/>
    <path class="bb4036ef-2bce-4478-a899-4b09128e776e" d="M279.14,95.86a79.44,79.44,0,0,0-3.54-15.23c.26-1.61-1.14-2.75-1.23-4.26a12,12,0,0,0,7.29-2.47c1.24-.88,2.76-2.56,4.9-1.24.72.44,1.55,0,1.31-1.16-.14-.7-.27-1.4-.36-2.1a1,1,0,0,1,.58-.94c.49-.28.59.12.84.44a1.88,1.88,0,0,0,3.14,0c.41-.51.92-1,1.44-.65,1.84,1.26,3.47.16,5.16-.31a10.87,10.87,0,0,1,1.14-.2,3.39,3.39,0,0,1,.44,2c-.59.61-.34,1.28-.22,2a46.79,46.79,0,0,1,1,9.74v.77c.16,1.3-.38,2.67.39,3.91v.78c-.88.22-.82.94-.77,1.57.15,1.67-.55,3.18-.82,4.76-.58,3.29-2.72,5.86-3.73,8.93a2.72,2.72,0,0,1-2.7,1.9,2.77,2.77,0,0,0-2.61,1.67,4.08,4.08,0,0,1-2.92,2c-1.31.3-2.81-.21-3.94.78-.92.8-1.25.33-1.34-.58-.27-2.84-1.54-5.47-1.53-8.38C281,98.11,281,96.45,279.14,95.86Z" transform="translate(-58.98 -17.3)"/>
    <path class="afa666e7-728a-4a05-852e-6cc08654d44f" d="M202.58,42.39a58.12,58.12,0,0,1,22.11,7,5.08,5.08,0,0,1,.85.76,3.1,3.1,0,0,1-1.66-.4,82.37,82.37,0,0,0-13-3.6c-.33-.66-.82-.6-1.37-.32l-2.27-.34c-.16-.19-.29-.53-.46-.56-3.8-.55-7.58-.75-11.29.56-.62.22-1.06.48-1,1.22-.45.22-1.09.06-1.37.65a21.92,21.92,0,0,0-7.81,3.53c-3.05,1.14-5.64,3-8.33,4.82A29.64,29.64,0,0,0,170.81,61a.25.25,0,0,0-.24.15.78.78,0,0,0-.9.65c-5.87,5-11.73,10-17.62,15a88.49,88.49,0,0,1-13.55,9.67c-2.73,1.54-5.78,2.19-8.63,3.36a28.64,28.64,0,0,1-8.67.1c-7.88-1.36-13.51-6.38-19-11.59.4-1.82,1.86-2.16,3.38-2.4a11.9,11.9,0,0,1,8.1,2c3.22,1.94,7,1.75,10.37,3,.16.06.38,0,.57,0,3.84-.17,7.66-1.56,11.53-.18a6.38,6.38,0,0,0,2.74-.86c2.56-1.13,4.63-3,7.1-4.3,3.27.46,5.08-1.5,6.59-4,2.44-1.93,4.89-3.82,7.3-5.78,2.91-2.36,6.13-4.34,8.73-7.08.68-.34,1.38-.64,1.63-1.45a6.54,6.54,0,0,0,3.12-2.39c2.88-.83,5.28-2.64,7.95-3.9,3.9-1.85,7.65-4,11.48-6a30.24,30.24,0,0,1,5.9-2.31l3.13-.32A.47.47,0,0,0,202.58,42.39Z" transform="translate(-58.98 -17.3)"/>
    <path class="bb4036ef-2bce-4478-a899-4b09128e776e" d="M146,75.56c-2.47,1.26-4.54,3.17-7.1,4.3a6.38,6.38,0,0,1-2.74.86c1-1.58,2.63-2.47,4-3.64a19,19,0,0,0,4-4.36c-4.49.84-8,2.64-11.78,3.81-5.64,1.76-11.28,2.16-16.68-.38A25.06,25.06,0,0,0,104.44,74a3.24,3.24,0,0,1-2.26-.34,10.84,10.84,0,0,0,4.29-2.48,1.52,1.52,0,0,0,.47-2,3.12,3.12,0,0,1,2.63-4.28,9.82,9.82,0,0,0,2.48-.19c1.23-.29,2,.47,2.55,1.38.35.53.56,1.11,1.34,1.28A92,92,0,0,0,125,69,22.65,22.65,0,0,0,136.48,67c3.14-1.33,6.35-2.5,9.56-3.68,2.2-.81,4-2.28,6.08-3.38,2.87-1.56,6.1-2.25,8.84-4a1.56,1.56,0,0,1,1.68-.12c1.71,1.1,3.3.32,4.83-.32a31.1,31.1,0,0,0,4.86-2.44,3.93,3.93,0,0,1,3.29-.56c-.55.93-1.68,1.16-2.36,1.94-1.24.71-2.77,1.12-3,2.86-.25.81-1,1.11-1.63,1.45-1,.1-2.05-.25-3,.47-4.43,3.43-8.91,6.77-13.27,10.27-1,.84-2.5,1.43-2.84,3C149,74.25,146.78,74.13,146,75.56Z" transform="translate(-58.98 -17.3)"/>
    <path class="a661e817-ec69-47f5-9429-0c1c6dc51555" d="M200.54,64.21a12.23,12.23,0,0,0-2.83,4.26c-.27.57-.31,1.26-.93,1.62-1.87-3-2.9-6.44-1.75-9.57.76-2.08,2.28-4.75,4.94-5.41,1.45-.35,2.95-.68,4.43-1,3.53-.74,6.93-2,10.4-2.92a5,5,0,0,0,1-.56,4.23,4.23,0,0,1,2.06,0l.07.31.2-.31a12.33,12.33,0,0,1,4.69-.07c.11,1.19-.65,1.21-1.5,1.08-.54-.09-1.15-.51-1.71.43A11.86,11.86,0,0,1,228,55.23c-2.19,1.23-4.66.79-7,1.13-3.69.55-7.48.5-11,1.93l-.78.33c-2.66,1.06-5.59,1.61-7.52,4.05C201.26,63.17,200.71,63.54,200.54,64.21Z" transform="translate(-58.98 -17.3)"/>
    <path class="a661e817-ec69-47f5-9429-0c1c6dc51555" d="M102.18,73.64a3.24,3.24,0,0,0,2.26.34,25.06,25.06,0,0,1,11.27,2.17c5.4,2.54,11,2.14,16.68.38,3.74-1.17,7.29-3,11.78-3.81a19,19,0,0,1-4,4.36c-1.37,1.17-3,2.06-4,3.64-3.87-1.38-7.69,0-11.53.18-.19,0-.41.11-.57,0-3.37-1.3-7.15-1.11-10.37-3a11.9,11.9,0,0,0-8.1-2c-1.52.24-3,.58-3.38,2.4a40.28,40.28,0,0,1-5.45-5.85l.77-.07,1.16.42a3.81,3.81,0,0,0,2,.72Z" transform="translate(-58.98 -17.3)"/>
    <path class="a661e817-ec69-47f5-9429-0c1c6dc51555" d="M267.29,69.34c-1-1.79-1.57-3.9-3.74-4.76-.85-1.18-1.74-2.35-2.54-3.56a3.79,3.79,0,0,1-.85-2.38c2,1.67,4.21,2.85,5.44,4.69,1.46,2.2,3.45,3.91,4.86,6.13s2.53,4.65,3.91,6.91c.09,1.51,1.49,2.65,1.23,4.26a3.61,3.61,0,0,1-2.46-2.2c-.47-1-1-2-2.29-2.06q-1.61-3.14-3.19-6.28l-.25-.4A.55.55,0,0,0,267.29,69.34Z" transform="translate(-58.98 -17.3)"/>
    <path class="a6af5ee5-0b20-489d-8e68-af6cc92206a7" d="M173.26,54.44c.68-.78,1.81-1,2.36-1.94,4.15-3.14,8.43-6.08,13.38-7.83,2.68-.94,5.25-2.26,8.17-2.45.63,0,1.15-.18,1.49.47a30.24,30.24,0,0,0-5.9,2.31c-3.83,2-7.58,4.16-11.48,6-2.67,1.26-5.07,3.07-8,3.9Z" transform="translate(-58.98 -17.3)"/>
    <path class="a6af5ee5-0b20-489d-8e68-af6cc92206a7" d="M222.83,50.55c1.12-.23,2,.48,3.09.61.54.07,1.2.67,1.62-.22,1.44-.11,2.61.7,3.88,1.17a1,1,0,0,1,.74,1,1.23,1.23,0,0,1-.84,1.21c-1.11.32-2.24.59-3.36.88a11.86,11.86,0,0,0-8.34-3.17c.56-.94,1.17-.52,1.71-.43C222.18,51.76,222.94,51.74,222.83,50.55Z" transform="translate(-58.98 -17.3)"/>
    <path class="bb4036ef-2bce-4478-a899-4b09128e776e" d="M97.49,72.43l-.77.07c-1-.82-1.27-2.27-2.4-3a1.55,1.55,0,0,0-.72-1c-.28-1.81-1.94-2.92-2.36-4.66h1.18c1.07.43,1.2,1.64,1.94,2.35-.33,1.66.77,2.69,1.64,3.87C96.54,70.79,97.38,71.4,97.49,72.43Z" transform="translate(-58.98 -17.3)"/>
    <path class="bb4036ef-2bce-4478-a899-4b09128e776e" d="M100.62,73.57a3.81,3.81,0,0,1-2-.72C99.59,72.32,100.21,72.67,100.62,73.57Z" transform="translate(-58.98 -17.3)"/>
    <path class="a6af5ee5-0b20-489d-8e68-af6cc92206a7" d="M202.58,42.39a.47.47,0,0,1-.79,0C202.06,42,202.32,42,202.58,42.39Z" transform="translate(-58.98 -17.3)"/>
    <path class="bb4036ef-2bce-4478-a899-4b09128e776e" d="M209.18,58.62l.78-.33C209.89,58.86,209.75,59.25,209.18,58.62Z" transform="translate(-58.98 -17.3)"/>
    <path class="ad498994-d079-4061-a63e-4f9345d0d323" d="M279.14,95.86c1.83.59,1.9,2.25,1.9,3.67,0,2.91,1.26,5.54,1.53,8.38.09.91.42,1.38,1.34.58,1.13-1,2.63-.48,3.94-.78a4.08,4.08,0,0,0,2.92-2,2.77,2.77,0,0,1,2.61-1.67,2.72,2.72,0,0,0,2.7-1.9c1-3.07,3.15-5.64,3.73-8.93.27-1.58,1-3.09.82-4.76-.05-.63-.11-1.35.77-1.57a4.14,4.14,0,0,1,.39,2.27c-.07,4.6,0,9.21-1.35,13.68-.14.47-.21.89.21,1.25,0,.54.07,1.13-.41,1.56a2.63,2.63,0,0,0-2.21,1c-3.73,4.8-6.32,10.49-11.1,14.49a1.43,1.43,0,0,0-.33.47c-.76,1.71-2.42,2.46-3.77,3.52-1,.78-1.76.47-1.72-.89.05-2.07-.21-4.15.27-6.22.19-.83.6-2.06-1-2.24C281.33,109,279.6,102.49,279.14,95.86Z" transform="translate(-58.98 -17.3)"/>
    <path class="a6af5ee5-0b20-489d-8e68-af6cc92206a7" d="M280.39,115.76c1.59.18,1.18,1.41,1,2.24-.48,2.07-.22,4.15-.27,6.22,0,1.36.73,1.67,1.72.89,1.35-1.06,3-1.81,3.77-3.52a1.43,1.43,0,0,1,.33-.47c4.78-4,7.37-9.69,11.1-14.49a2.63,2.63,0,0,1,2.21-1c-1.47,7.44-5,13.88-9.3,20-3.41,4.91-7.55,9.17-11.41,13.69-.46.55-1.26.71-1.56,1.43-.61,1.06-1.79,1.4-2.81,2.17A122,122,0,0,0,280.39,115.76Z" transform="translate(-58.98 -17.3)"/>
    <path class="a6af5ee5-0b20-489d-8e68-af6cc92206a7" d="M300.65,104.07c-.42-.36-.35-.78-.21-1.25,1.35-4.47,1.28-9.08,1.35-13.68a4.14,4.14,0,0,0-.39-2.27v-.78c.46-1.36.86-2.71-.39-3.91v-.77c.75-.16.7-.76.81-1.33.22-1.17.22-2.43,1.15-3.36,1,2.35.55,5,1.17,7.37,1.18,4.61-.78,8.93-1.21,13.39a17,17,0,0,1-1.15,4.84A3.06,3.06,0,0,1,300.65,104.07Z" transform="translate(-58.98 -17.3)"/>
    <path class="ad498994-d079-4061-a63e-4f9345d0d323" d="M303,76.72c-.93.93-.93,2.19-1.15,3.36-.11.57-.06,1.17-.81,1.33a46.79,46.79,0,0,0-1-9.74c-.12-.71-.37-1.38.22-2,1.16.66.68,2,1.13,2.93C302,73.94,302.45,75.34,303,76.72Z" transform="translate(-58.98 -17.3)"/>
    <path class="a6af5ee5-0b20-489d-8e68-af6cc92206a7" d="M287,172.81c-.29-1.8.7-3.33,1.36-4.81,1-2.12,1-4.32,1.38-6.5h0a68.34,68.34,0,0,0,5.15-7.18c.81-1.46,2.67-2.22,2.66-4.14l.42-.76a.84.84,0,0,0,.74-.81,75.51,75.51,0,0,0,6.23-9.41,6.69,6.69,0,0,0,2.73.4c-2.09,5.83-6.14,10.47-9.43,15.57-3,4.68-6.45,9.09-8.93,14.12A31.92,31.92,0,0,1,287,172.81Z" transform="translate(-58.98 -17.3)"/>
    <path class="a661e817-ec69-47f5-9429-0c1c6dc51555" d="M307.63,139.59a6.69,6.69,0,0,1-2.73-.4c1.74-3.32,3.38-6.69,5.17-10,2.25-4.14,4.15-8.47,4.64-13.27.11-1,.15-2.14,1.42-2.53a62.55,62.55,0,0,1-4.71,17.9A61.94,61.94,0,0,1,307.63,139.59Z" transform="translate(-58.98 -17.3)"/>
    <path class="a661e817-ec69-47f5-9429-0c1c6dc51555" d="M297.51,150.17c0,1.92-1.85,2.68-2.66,4.14a68.34,68.34,0,0,1-5.15,7.18c0-3.41,2.47-5.58,4.33-8C295,152.29,295.6,150.49,297.51,150.17Z" transform="translate(-58.98 -17.3)"/>
    <path class="a661e817-ec69-47f5-9429-0c1c6dc51555" d="M316.9,107.54a4.37,4.37,0,0,1-.36,2.8C315.21,109.22,315.85,108.35,316.9,107.54Z" transform="translate(-58.98 -17.3)"/>
    <path class="a6af5ee5-0b20-489d-8e68-af6cc92206a7" d="M317,104.06a1.36,1.36,0,0,1,0,2A1.42,1.42,0,0,1,317,104.06Z" transform="translate(-58.98 -17.3)"/>
    <path class="a661e817-ec69-47f5-9429-0c1c6dc51555" d="M298.67,148.6a.84.84,0,0,1-.74.81A.73.73,0,0,1,298.67,148.6Z" transform="translate(-58.98 -17.3)"/>
    <path class="a2f11701-9e18-4922-ac2e-a1224bb166cd" d="M193.72,59.18c-.41-.25-.47-.53-.07-.85C193.84,58.6,194.06,58.87,193.72,59.18Z" transform="translate(-58.98 -17.3)"/>
    <path class="b837fe73-7f4b-49f3-a2a7-5ae2c35bdbc2" d="M91.45,76.32c2,3.68,5.35,6.09,8.27,8.9l1.66,1.63c-2.91.11-5.76-.07-8.37-1.57-3.71-2.15-4.88-5.64-5.09-9.61-.07-1.32-.61-2.65-.06-4.25A37.8,37.8,0,0,0,91.45,76.32Z" transform="translate(-58.98 -17.3)"/>
    <path class="b4c6b15f-2c94-4056-b7bb-c4f45f8a737d" d="M265.47,239.22c1-5,2.67-9.84,4.13-14.72a1.75,1.75,0,0,1,1.33-1.31,12.4,12.4,0,0,1-1.09,5.25c-1.1,2.61-1.2,5.51-2.32,8.15A4.49,4.49,0,0,1,265.47,239.22Z" transform="translate(-58.98 -17.3)"/>
    <path class="b4c6b15f-2c94-4056-b7bb-c4f45f8a737d" d="M272.51,217.35c-.07-1.76.13-3.43,1.55-4.7A7,7,0,0,1,272.51,217.35Z" transform="translate(-58.98 -17.3)"/>
    <path class="b4c6b15f-2c94-4056-b7bb-c4f45f8a737d" d="M271,222.42c-.07-1.43,0-2.81,1.53-3.53C272,220.07,272.23,221.58,271,222.42Z" transform="translate(-58.98 -17.3)"/>
    <path class="a6af5ee5-0b20-489d-8e68-af6cc92206a7" d="M229.55,289.64a5.22,5.22,0,0,0-1.72,2c-.69,1.71-2.56,2.24-3.78,3.44-1.6,1.18-3.53,1.59-5.36,2.2a63.67,63.67,0,0,1-14.87,3.44,65.86,65.86,0,0,1-14.31-.12,91.29,91.29,0,0,1-18.9-4.29,7.85,7.85,0,0,1-2.83-1.22c1.06-.94,1.9-1.94,1.43-3.53-.21-.72.13-1.27.92-.9,3,1.41,5.72.15,8.46-.66,2-.59,3.81,0,5.45.59s3.14,1,4.25.29c1.81-1.12,4-.4,5.68-1.76.54-.45,1,0,1.15.59a2.59,2.59,0,0,0,1.51,1.68c.4.16,1.23.34.84-.6-.63-1.54.37-1.23,1.12-1,1.13.34,2.18.84,3.21-.28.39-.42.85,0,1.11.39.75,1.2,1.78,1.31,3,.9s2.29-.49,3.37-.9c1.41-.53,1.92.84,2.87,1.25s1.77,1.09,2.62-.17c.19-.28.84-.6,1-.49,1.53,1,3.08-.67,4.59.11.45.24.87,0,1.28-.26C224.2,289,226.9,289.59,229.55,289.64Z" transform="translate(-58.98 -17.3)"/>
    <path class="ad498994-d079-4061-a63e-4f9345d0d323" d="M255.7,285.7v-.39a2.33,2.33,0,0,1,.11.28S255.74,285.66,255.7,285.7Z" transform="translate(-58.98 -17.3)"/>
    <path class="b4c6b15f-2c94-4056-b7bb-c4f45f8a737d" d="M260,260.3c-.12,1.7,0,3.48-1.53,4.71A5.58,5.58,0,0,1,260,260.3Z" transform="translate(-58.98 -17.3)"/>
    <path class="b4c6b15f-2c94-4056-b7bb-c4f45f8a737d" d="M260.37,258.74l-.39.79C259.51,259,259.92,258.84,260.37,258.74Z" transform="translate(-58.98 -17.3)"/>
    <path class="a6af5ee5-0b20-489d-8e68-af6cc92206a7" d="M268.09,107.16a30.58,30.58,0,0,1-1.71,9.64,11.16,11.16,0,0,1-3.64,5.25c1.36-4.29,2.6-8.6,3.62-13A2.33,2.33,0,0,1,268.09,107.16Z" transform="translate(-58.98 -17.3)"/>
    <path class="b4c6b15f-2c94-4056-b7bb-c4f45f8a737d" d="M145.47,176.08l3.58-1.75c.74,1.35,1.74.87,2.76.4a36.21,36.21,0,0,1,5.85-2.29c-.85,1.85-2.67,2.45-4.31,3.28-.55.28-1.26.32-1.56,1-1.55.22-3,1-4.65.81C146.18,177.39,145.58,177.08,145.47,176.08Z" transform="translate(-58.98 -17.3)"/>
    <path class="bb4036ef-2bce-4478-a899-4b09128e776e" d="M202.41,160l.3.28a1.89,1.89,0,0,1-.38.27.34.34,0,0,1-.28-.18C202,160.19,202.11,160.06,202.41,160Z" transform="translate(-58.98 -17.3)"/>
    <path class="a6af5ee5-0b20-489d-8e68-af6cc92206a7" d="M142.66,177.07l.54-.33Z" transform="translate(-58.98 -17.3)"/>
    <path class="bd484e79-193b-451f-b375-8388dd24703d" d="M157.66,172.44a36.21,36.21,0,0,0-5.85,2.29c-1,.47-2,1-2.76-.4,2.65-1.67,5.66-2.7,8.12-4.73,3.24-2.68,7-4.67,10.35-7.16,5-3.65,10.17-6.93,15.39-10.13,4-2.46,8-5,12-7.43,6.58-4,13.43-7.48,20.12-11.27,5-2.81,9.9-5.69,14.84-8.54.6.1,1.1,0,1.12-.74l0,0c1.17-.15,2.72.3,2.74-1.71l.32-.29c1.54.35,2.61-.61,3.68-1.41,2.22-1.67,4.38-3.42,6.57-5.14,1.42.62,2.11,1.32.34,2.41a2.58,2.58,0,0,0-1.12,2.29l-6.23,4.31a1.25,1.25,0,0,0-1.17.78l-.4.39a1.25,1.25,0,0,0-1.17.78l-.39.4a10.42,10.42,0,0,0-4.3,2.72c-4.1,2.84-8.52,5.12-12.84,7.58-8.49,4.84-16.53,10.45-25.23,15a2.14,2.14,0,0,0-1,.88,3.5,3.5,0,0,0-3.43.7,3.12,3.12,0,0,1-1.25.46,18.08,18.08,0,0,0-7.47,3.75c-2,1.78-3.47,4.07-6,5.24a8.24,8.24,0,0,0-3.69,2.75.84.84,0,0,0-.81.75c-3.16,1.43-6.36,2.79-9.08,5A2.23,2.23,0,0,1,157.66,172.44Z" transform="translate(-58.98 -17.3)"/>
    <path class="b4c6b15f-2c94-4056-b7bb-c4f45f8a737d" d="M169,166.17a8.24,8.24,0,0,1,3.69-2.75c2.56-1.17,4.05-3.46,6-5.24a18.08,18.08,0,0,1,7.47-3.75,3.12,3.12,0,0,0,1.25-.46,3.5,3.5,0,0,1,3.43-.7c-1.4,1.93-3.64,2.74-5.45,4.11a52.8,52.8,0,0,1-7.74,4.71C174.85,163.54,172.26,165.67,169,166.17Z" transform="translate(-58.98 -17.3)"/>
    <path class="ad498994-d079-4061-a63e-4f9345d0d323" d="M231.62,99.54c0-1.59-1-2.2-1.41-3.13-.19-.42-.39-.88.15-1.18a.81.81,0,0,1,1,.24C232.39,96.55,233.32,97.64,231.62,99.54Z" transform="translate(-58.98 -17.3)"/>
    <path class="b4c6b15f-2c94-4056-b7bb-c4f45f8a737d" d="M229.92,129.84a10.42,10.42,0,0,1,4.3-2.72A5.26,5.26,0,0,1,229.92,129.84Z" transform="translate(-58.98 -17.3)"/>
    <path class="b4c6b15f-2c94-4056-b7bb-c4f45f8a737d" d="M236.18,125.55a1.25,1.25,0,0,1,1.17-.78C237.24,125.46,236.74,125.55,236.18,125.55Z" transform="translate(-58.98 -17.3)"/>
    <path class="b4c6b15f-2c94-4056-b7bb-c4f45f8a737d" d="M234.61,126.72a1.25,1.25,0,0,1,1.17-.78C235.68,126.63,235.18,126.72,234.61,126.72Z" transform="translate(-58.98 -17.3)"/>
    <path class="b4c6b15f-2c94-4056-b7bb-c4f45f8a737d" d="M168.17,166.92a.84.84,0,0,1,.81-.75A.76.76,0,0,1,168.17,166.92Z" transform="translate(-58.98 -17.3)"/>
    <path class="ad498994-d079-4061-a63e-4f9345d0d323" d="M175.8,104.48l.22-.2a1.58,1.58,0,0,1,.15.24s-.08.12-.09.12S175.91,104.54,175.8,104.48Z" transform="translate(-58.98 -17.3)"/>
    <path class="ad498994-d079-4061-a63e-4f9345d0d323" d="M268.56,95.45v.81A.46.46,0,0,1,268.56,95.45Z" transform="translate(-58.98 -17.3)"/>
    <path class="a6af5ee5-0b20-489d-8e68-af6cc92206a7" d="M233.79,122.6c0,2-1.57,1.56-2.74,1.71l2-1.71Z" transform="translate(-58.98 -17.3)"/>
    <path class="a6af5ee5-0b20-489d-8e68-af6cc92206a7" d="M231,124.33c0,.78-.52.84-1.12.74A1.94,1.94,0,0,1,231,124.33Z" transform="translate(-58.98 -17.3)"/>
    <path class="a6af5ee5-0b20-489d-8e68-af6cc92206a7" d="M244.36,115.76c-2.19,1.72-4.35,3.47-6.57,5.14-1.07.8-2.14,1.76-3.68,1.41a85.94,85.94,0,0,0,9.71-8.16c.57-.59,1.12-1.2,1.68-1.8.45.16.44-.15.45-.43l0,0a.72.72,0,0,0,.74-.72l.08,0c1.39-.06,1.87-1.24,2.63-2.1.47-.53,1-1,1.56-1.46a3.52,3.52,0,0,1-1.3,2.68C247.91,112.07,246.14,113.92,244.36,115.76Z" transform="translate(-58.98 -17.3)"/>
    <path class="bd484e79-193b-451f-b375-8388dd24703d" d="M246.73,111.17a.72.72,0,0,1-.74.72A1,1,0,0,1,246.73,111.17Z" transform="translate(-58.98 -17.3)"/>
    <path class="bd484e79-193b-451f-b375-8388dd24703d" d="M246,111.92c0,.28,0,.59-.45.43Z" transform="translate(-58.98 -17.3)"/>
    <path class="ad498994-d079-4061-a63e-4f9345d0d323" d="M301,82.18c1.25,1.2.85,2.55.39,3.91C300.63,84.85,301.17,83.48,301,82.18Z" transform="translate(-58.98 -17.3)"/>
    <path class="ad498994-d079-4061-a63e-4f9345d0d323" d="M149.49,72.47c.34-1.55,1.8-2.14,2.84-3,4.36-3.5,8.84-6.84,13.27-10.27.93-.72,2-.37,3-.47-2.6,2.74-5.82,4.72-8.73,7.08-2.41,2-4.86,3.85-7.3,5.78Z" transform="translate(-58.98 -17.3)"/>
    <path class="afa666e7-728a-4a05-852e-6cc08654d44f" d="M207.24,45.48c-2.07.27-4.2-.28-6.24.45a.93.93,0,0,0-1.52.07l-1.15.11-3.79.59c-.11-.74.33-1,1-1.22,3.71-1.31,7.49-1.11,11.29-.56C207,45,207.08,45.29,207.24,45.48Z" transform="translate(-58.98 -17.3)"/>
    <path class="a661e817-ec69-47f5-9429-0c1c6dc51555" d="M149.49,72.47l3.06-.86c-1.51,2.45-3.32,4.41-6.59,4C146.78,74.13,149,74.25,149.49,72.47Z" transform="translate(-58.98 -17.3)"/>
    <path class="ad498994-d079-4061-a63e-4f9345d0d323" d="M173.26,54.44l.06.47a6.47,6.47,0,0,1-3.11,2.39C170.49,55.56,172,55.15,173.26,54.44Z" transform="translate(-58.98 -17.3)"/>
    <path class="afa666e7-728a-4a05-852e-6cc08654d44f" d="M210.88,46.14c-.51.11-1,.2-1.37-.32C210.06,45.54,210.55,45.48,210.88,46.14Z" transform="translate(-58.98 -17.3)"/>
    <path class="afa666e7-728a-4a05-852e-6cc08654d44f" d="M169.67,61.82a.78.78,0,0,1,.9-.65" transform="translate(-58.98 -17.3)"/>
    <path class="afa666e7-728a-4a05-852e-6cc08654d44f" d="M217.87,50.62a.17.17,0,0,1,.27,0l-.2.31Z" transform="translate(-58.98 -17.3)"/>
    <path class="afa666e7-728a-4a05-852e-6cc08654d44f" d="M199.48,46a.93.93,0,0,1,1.52-.07A1.22,1.22,0,0,1,199.48,46Z" transform="translate(-58.98 -17.3)"/>
    <path class="a8a419a7-adad-4a24-8330-b0f8fdbafa38" d="M267.66,70.09l-.25-.4Z" transform="translate(-58.98 -17.3)"/>
    <path class="b837fe73-7f4b-49f3-a2a7-5ae2c35bdbc2" d="M184.86,62.43c.61,3.5-.46,6.78-1.54,10-1.18,3.55-3.55,6.4-6.12,9-1.71,1.75-4.12,2.35-6.26,3.39a26.66,26.66,0,0,1-6.37.8c-2.08-.05-4.15-.25-6.22-.42.88-1.67,2.41-2.78,3.64-4.15a1.45,1.45,0,0,0,1.12-1.24l.37-.17a1,1,0,0,0,.9-.2l8.11-6.37c.21,0,.31-.08.3-.29l.48-.47.38-.32.39-.41,2-1.21c.22.26.55.5.83.29,2.13-1.6,4.24-3.23,5.29-5.82C183.1,64.13,183.47,62.71,184.86,62.43Z" transform="translate(-58.98 -17.3)"/>
    <path class="a661e817-ec69-47f5-9429-0c1c6dc51555" d="M172.49,73.1l-8.11,6.37a1,1,0,0,1-.9.2V78.52c2.84-3.27,6.46-5.65,9.68-8.49,1,.16.89.89.88,1.58l-.39.41-.38.32-.48.47Z" transform="translate(-58.98 -17.3)"/>
    <path class="a6af5ee5-0b20-489d-8e68-af6cc92206a7" d="M174,71.61c0-.69.07-1.42-.88-1.58a109.6,109.6,0,0,1,10.32-7.77c.4-.26,1.09-1.14,1.38.17-1.39.28-1.76,1.7-2.74,2.44a2.41,2.41,0,0,0-1.63.91A43.53,43.53,0,0,1,176,70.4Z" transform="translate(-58.98 -17.3)"/>
    <path class="afa666e7-728a-4a05-852e-6cc08654d44f" d="M163.48,78.52v1.15l-.37.17A1.11,1.11,0,0,0,162,81.08c-1.23,1.37-2.76,2.48-3.64,4.15-.69.37-1.1-.55-1.74-.38A28.35,28.35,0,0,1,163.48,78.52Z" transform="translate(-58.98 -17.3)"/>
    <path class="bd484e79-193b-451f-b375-8388dd24703d" d="M176,70.4a43.53,43.53,0,0,0,4.49-4.62,2.41,2.41,0,0,1,1.63-.91c-1.05,2.59-3.16,4.22-5.29,5.82C176.55,70.9,176.22,70.66,176,70.4Z" transform="translate(-58.98 -17.3)"/>
    <path class="a661e817-ec69-47f5-9429-0c1c6dc51555" d="M162,81.08a1.11,1.11,0,0,1,1.12-1.24A1.45,1.45,0,0,1,162,81.08Z" transform="translate(-58.98 -17.3)"/>
    <path class="a6af5ee5-0b20-489d-8e68-af6cc92206a7" d="M173.27,72.34l.38-.32Z" transform="translate(-58.98 -17.3)"/>
    <path class="a6af5ee5-0b20-489d-8e68-af6cc92206a7" d="M172.49,73.1l.3-.29C172.8,73,172.7,73.12,172.49,73.1Z" transform="translate(-58.98 -17.3)"/>
  </g>
</svg>
